<?xml version="1.0" encoding="UTF-8" standalone="no"?><!-- Generator: Gravit.io --><svg xmlns="http://www.w3.org/2000/svg" xmlns:xlink="http://www.w3.org/1999/xlink" style="isolation:isolate" viewBox="0 0 599.169 459.38" width="599.169pt" height="459.38pt"><defs><clipPath id="_clipPath_Njg9YCCKseSwbJWaQQv1ym6vll1J9Ljx"><rect width="599.169" height="459.38"/></clipPath></defs><g clip-path="url(#_clipPath_Njg9YCCKseSwbJWaQQv1ym6vll1J9Ljx)"><clipPath id="_clipPath_ClmApw3O461jXBzJjirSW0rSOdSpilUw"><rect x="0" y="0" width="599.168" height="459.38" transform="matrix(1,0,0,1,0,0)" fill="rgb(255,255,255)"/></clipPath><g clip-path="url(#_clipPath_ClmApw3O461jXBzJjirSW0rSOdSpilUw)"><g><g><path d=" M 406.656 457.912 C 406.072 458.41 405.469 458.896 404.86 459.376 L 330.92 459.376 C 330.496 458.896 330.071 458.41 329.653 457.912 C 326.239 453.817 323.234 449.399 320.68 444.719 C 314.609 433.784 312.518 419.447 312.518 404.846 C 312.518 403.954 312.524 403.062 312.542 402.17 C 312.61 398.074 312.838 393.972 313.176 389.937 C 313.238 389.236 313.299 388.541 313.367 387.846 C 313.914 382.059 314.683 376.425 315.556 371.16 C 315.667 370.49 315.778 369.825 315.894 369.167 C 317.674 358.711 320.061 348.367 323.041 338.188 C 323.041 338.188 323.14 338.212 323.33 338.261 C 323.878 338.415 325.188 338.778 327.113 339.35 C 332.414 340.925 342.372 344.098 353.855 348.816 C 354.482 349.068 355.116 349.332 355.755 349.603 C 365.47 353.608 374.873 358.33 383.887 363.73 C 384.447 364.069 385 364.413 385.554 364.757 L 385.554 364.807 L 384.343 404.028 L 395.167 371.375 Q 398.479 373.894 401.496 376.597 C 402.05 377.089 402.603 377.593 403.138 378.116 C 407.707 382.304 411.607 387.168 414.701 392.539 C 430.895 421.735 424.099 443.2 406.656 457.912 Z " fill="rgb(149,149,149)"/><path d=" M 396.231 459.376 L 394.263 459.376 C 394.251 458.89 394.232 458.404 394.202 457.912 C 393.408 443.157 387.08 426.864 378.463 411.138 C 378.155 410.566 377.842 409.981 377.509 409.409 C 373.327 401.931 368.665 394.612 363.849 387.655 C 363.48 387.114 363.099 386.567 362.718 386.026 C 356.309 376.88 349.691 368.417 343.713 361.19 C 343.294 360.674 342.864 360.169 342.44 359.671 C 333.577 349.043 326.264 341.3 323.33 338.261 C 322.894 337.812 322.555 337.468 322.322 337.228 C 322.106 336.994 321.977 336.871 321.953 336.847 L 322.642 336.158 L 322.648 336.14 L 323.349 335.451 C 323.373 335.481 323.798 335.887 324.548 336.668 C 325.182 337.314 326.049 338.218 327.113 339.35 C 330.828 343.286 336.972 349.984 344.082 358.478 C 344.494 358.97 344.918 359.48 345.343 359.991 C 350.195 365.852 355.454 372.495 360.663 379.635 Q 362.628 382.329 364.477 384.98 C 364.864 385.521 365.246 386.062 365.614 386.604 Q 373.429 397.877 379.262 408.29 L 380.234 410.031 C 390.148 428.113 395.487 444.129 396.176 457.912 C 396.2 458.404 396.219 458.89 396.231 459.376 Z " fill="rgb(255,255,255)"/><path d=" M 354.937 347.376 C 354.587 347.862 354.23 348.342 353.855 348.816 C 351.034 352.45 347.749 355.699 344.082 358.478 C 343.547 358.871 342.999 359.277 342.44 359.671 C 340.913 360.736 339.332 361.722 337.704 362.623 C 330.994 366.36 323.553 368.593 315.894 369.167 C 315.648 369.192 315.396 369.21 315.15 369.223 C 315.039 369.881 314.935 370.539 314.818 371.209 C 315.064 371.197 315.31 371.185 315.556 371.16 C 323.668 370.632 331.561 368.306 338.663 364.351 C 340.401 363.388 342.087 362.332 343.713 361.19 C 344.266 360.803 344.807 360.397 345.343 359.991 C 349.265 357.012 352.767 353.518 355.755 349.603 C 356.112 349.129 356.463 348.649 356.807 348.17 C 356.167 347.899 355.546 347.635 354.937 347.376 Z " fill="rgb(255,255,255)"/><path d=" M 384.558 362.34 C 384.343 362.808 384.115 363.269 383.887 363.73 C 379.502 372.469 372.784 379.824 364.477 384.98 C 363.898 385.343 363.314 385.693 362.718 386.026 C 362.539 386.13 362.349 386.241 362.17 386.339 C 347.102 394.701 328.922 395.262 313.367 387.846 C 313.182 387.76 313.004 387.674 312.825 387.588 C 312.758 388.289 312.696 388.99 312.647 389.697 C 312.819 389.777 312.998 389.863 313.176 389.937 C 329.171 397.311 347.724 396.616 363.124 388.068 C 363.37 387.932 363.609 387.797 363.849 387.655 C 364.446 387.311 365.036 386.96 365.614 386.604 C 374.128 381.297 381.024 373.758 385.554 364.807 C 385.794 364.345 386.022 363.878 386.243 363.404 C 385.683 363.048 385.124 362.691 384.558 362.34 Z " fill="rgb(255,255,255)"/><path d=" M 401.822 375.201 C 401.717 375.668 401.613 376.136 401.496 376.597 C 398.332 389.581 390.394 400.896 379.262 408.29 C 378.69 408.678 378.1 409.047 377.509 409.409 C 376.876 409.791 376.242 410.172 375.59 410.529 C 355.024 421.913 329.433 418.52 312.542 402.17 C 312.401 402.041 312.266 401.906 312.13 401.771 C 312.13 402.687 312.124 403.591 312.137 404.501 C 312.259 404.618 312.389 404.735 312.518 404.846 C 330.08 420.757 355.817 423.736 376.55 412.257 C 377.202 411.9 377.842 411.531 378.463 411.138 C 379.065 410.781 379.65 410.412 380.234 410.031 C 391.524 402.561 399.675 391.203 403.138 378.116 C 403.255 377.673 403.372 377.23 403.476 376.781 C 402.942 376.24 402.382 375.73 401.822 375.201 Z " fill="rgb(255,255,255)"/><path d=" M 350.256 275.047 L 0 275.047 L 0 12.264 L 350.256 12.264 L 350.256 275.047 Z " fill="rgb(255,255,255)"/><circle vector-effect="non-scaling-stroke" cx="84.87380699741175" cy="53.166724622271" r="13.94196597729298" fill="rgb(149,149,149)"/><path d=" M 117.073 43.872 C 115.791 43.874 114.753 44.914 114.753 46.196 C 114.753 47.477 115.791 48.517 117.073 48.519 L 286.727 48.519 C 288.009 48.517 289.047 47.477 289.047 46.196 C 289.047 44.914 288.009 43.874 286.727 43.872 L 117.073 43.872 Z " fill="rgb(149,149,149)"/><path d=" M 117.073 57.814 C 116.243 57.812 115.475 58.254 115.058 58.972 C 114.642 59.69 114.64 60.575 115.053 61.295 C 115.467 62.015 116.233 62.46 117.063 62.461 L 224.32 62.461 C 225.152 62.463 225.92 62.02 226.336 61.301 C 226.752 60.581 226.752 59.694 226.336 58.975 C 225.92 58.255 225.152 57.813 224.32 57.814 L 117.073 57.814 Z " fill="rgb(149,149,149)"/><path d=" M 350.256 275.047 L 0 275.047 L 0 12.264 L 350.256 12.264 L 350.256 275.047 Z  M 3.92 271.127 L 346.336 271.127 L 346.336 16.184 L 3.92 16.184 L 3.92 271.127 Z " fill="rgb(149,149,149)"/><path d=" M 19.577 92.402 L 19.577 248.701 L 330.679 248.701 L 330.679 92.402 L 19.577 92.402 Z  M 329.183 131.103 L 253.277 131.103 L 253.277 93.898 L 329.183 93.898 L 329.183 131.103 Z  M 175.876 131.103 L 175.876 93.898 L 251.782 93.898 L 251.782 131.103 L 175.876 131.103 Z  M 251.782 132.598 L 251.782 169.804 L 175.876 169.804 L 175.876 132.598 L 251.782 132.598 Z  M 174.38 131.103 L 98.474 131.103 L 98.474 93.898 L 174.38 93.898 L 174.38 131.103 Z  M 174.38 132.598 L 174.38 169.804 L 98.474 169.804 L 98.474 132.598 L 174.38 132.598 Z  M 96.978 169.804 L 21.072 169.804 L 21.072 132.598 L 96.978 132.598 L 96.978 169.804 Z  M 96.978 171.299 L 96.978 208.504 L 21.072 208.504 L 21.072 171.299 L 96.978 171.299 Z  M 98.474 171.299 L 174.38 171.299 L 174.38 208.504 L 98.474 208.504 L 98.474 171.299 Z  M 174.38 210 L 174.38 247.205 L 98.474 247.205 L 98.474 210 L 174.38 210 Z  M 175.876 210 L 251.782 210 L 251.782 247.205 L 175.876 247.205 L 175.876 210 Z  M 175.876 208.504 L 175.876 171.299 L 251.782 171.299 L 251.782 208.504 L 175.876 208.504 Z  M 253.277 171.299 L 329.183 171.299 L 329.183 208.504 L 253.277 208.504 L 253.277 171.299 Z  M 253.277 169.804 L 253.277 132.598 L 329.183 132.598 L 329.183 169.804 L 253.277 169.804 Z  M 96.978 93.898 L 96.978 131.103 L 21.072 131.103 L 21.072 93.898 L 96.978 93.898 Z  M 21.072 210 L 96.978 210 L 96.978 247.205 L 21.072 247.205 L 21.072 210 Z  M 253.277 247.205 L 253.277 210 L 329.183 210 L 329.183 247.205 L 253.277 247.205 Z " fill="rgb(149,149,149)"/><path d=" M 147.287 134.451 L 116.332 133.75 C 113.236 121.756 114.63 110.336 117.1 99.812 L 148.055 100.512 C 144.924 111.577 144.66 123.256 147.287 134.451 L 147.287 134.451 Z " fill="rgb(7,232,89)"/><path d=" M 122.404 107.312 L 122.42 106.134 L 138.458 106.707 L 138.441 107.885 L 122.404 107.312 L 122.404 107.312 Z " fill="rgb(255,255,255)"/><path d=" M 122.336 112.024 L 122.353 110.846 L 138.39 111.419 L 138.373 112.597 L 122.336 112.024 L 122.336 112.024 Z " fill="rgb(255,255,255)"/><path d=" M 122.268 116.735 L 122.286 115.557 L 138.322 116.131 L 138.306 117.309 L 122.268 116.735 L 122.268 116.735 Z " fill="rgb(255,255,255)"/><path d=" M 122.201 121.447 L 122.218 120.269 L 138.255 120.842 L 138.238 122.02 L 122.201 121.447 L 122.201 121.447 Z " fill="rgb(255,255,255)"/><path d=" M 122.134 126.158 L 122.15 124.98 L 138.188 125.554 L 138.171 126.732 L 122.134 126.158 L 122.134 126.158 Z " fill="rgb(255,255,255)"/><path d=" M 79.981 221.201 L 49.026 220.5 C 45.93 208.506 47.324 197.085 49.795 186.561 L 80.75 187.262 C 77.619 198.327 77.354 210.006 79.981 221.201 L 79.981 221.201 Z " fill="rgb(149,149,149)"/><path d=" M 55.098 194.062 L 55.114 192.884 L 71.152 193.457 L 71.135 194.635 L 55.098 194.062 L 55.098 194.062 Z " fill="rgb(255,255,255)"/><path d=" M 55.031 198.773 L 55.047 197.596 L 71.084 198.169 L 71.067 199.347 L 55.031 198.773 L 55.031 198.773 Z " fill="rgb(255,255,255)"/><path d=" M 54.963 203.485 L 54.98 202.307 L 71.017 202.881 L 71 204.058 L 54.963 203.485 L 54.963 203.485 Z " fill="rgb(255,255,255)"/><path d=" M 54.895 208.196 L 54.912 207.018 L 70.949 207.592 L 70.932 208.77 L 54.895 208.196 L 54.895 208.196 Z " fill="rgb(255,255,255)"/><path d=" M 54.828 212.908 L 54.844 211.73 L 70.882 212.303 L 70.865 213.481 L 54.828 212.908 L 54.828 212.908 Z " fill="rgb(255,255,255)"/><path d=" M 241.515 181.565 L 210.56 180.864 C 207.464 168.87 208.858 157.45 211.329 146.926 L 242.284 147.626 C 239.153 158.691 238.888 170.37 241.515 181.565 L 241.515 181.565 Z " fill="rgb(149,149,149)"/><path d=" M 216.632 154.426 L 216.648 153.248 L 232.686 153.821 L 232.669 154.999 L 216.632 154.426 L 216.632 154.426 Z " fill="rgb(255,255,255)"/><path d=" M 216.565 159.138 L 216.581 157.96 L 232.618 158.533 L 232.601 159.711 L 216.565 159.138 L 216.565 159.138 Z " fill="rgb(255,255,255)"/><path d=" M 216.497 163.849 L 216.514 162.671 L 232.55 163.245 L 232.534 164.423 L 216.497 163.849 L 216.497 163.849 Z " fill="rgb(255,255,255)"/><path d=" M 216.429 168.561 L 216.446 167.383 L 232.483 167.956 L 232.466 169.134 L 216.429 168.561 L 216.429 168.561 Z " fill="rgb(255,255,255)"/><path d=" M 216.362 173.272 L 216.378 172.094 L 232.416 172.668 L 232.399 173.846 L 216.362 173.272 L 216.362 173.272 Z " fill="rgb(255,255,255)"/><path d=" M 228.054 174.087 L 197.099 173.386 C 194.002 161.392 195.396 149.971 197.867 139.447 L 228.822 140.148 C 225.691 151.213 225.427 162.892 228.054 174.087 L 228.054 174.087 Z " fill="rgb(7,232,89)"/><path d=" M 203.171 146.948 L 203.187 145.77 L 219.225 146.343 L 219.207 147.521 L 203.171 146.948 L 203.171 146.948 Z " fill="rgb(255,255,255)"/><path d=" M 203.103 151.659 L 203.12 150.481 L 219.157 151.055 L 219.14 152.233 L 203.103 151.659 L 203.103 151.659 Z " fill="rgb(255,255,255)"/><path d=" M 203.035 156.371 L 203.053 155.193 L 219.089 155.766 L 219.073 156.944 L 203.035 156.371 L 203.035 156.371 Z " fill="rgb(255,255,255)"/><path d=" M 202.968 161.082 L 202.985 159.904 L 219.022 160.478 L 219.005 161.656 L 202.968 161.082 L 202.968 161.082 Z " fill="rgb(255,255,255)"/><path d=" M 202.901 165.794 L 202.917 164.616 L 218.955 165.189 L 218.937 166.367 L 202.901 165.794 L 202.901 165.794 Z " fill="rgb(255,255,255)"/><path d=" M 342.224 242.402 L 311.269 241.701 C 308.173 229.707 309.567 218.286 312.037 207.762 L 342.993 208.463 C 339.861 219.528 339.597 231.207 342.224 242.402 L 342.224 242.402 Z " fill="rgb(7,232,89)"/><path d=" M 317.341 215.263 L 317.358 214.085 L 333.395 214.658 L 333.377 215.836 L 317.341 215.263 L 317.341 215.263 Z " fill="rgb(255,255,255)"/><path d=" M 317.273 219.974 L 317.29 218.796 L 333.327 219.37 L 333.31 220.548 L 317.273 219.974 L 317.273 219.974 Z " fill="rgb(255,255,255)"/><path d=" M 317.205 224.686 L 317.223 223.508 L 333.259 224.081 L 333.243 225.259 L 317.205 224.686 L 317.205 224.686 Z " fill="rgb(255,255,255)"/><path d=" M 317.138 229.397 L 317.155 228.22 L 333.192 228.792 L 333.175 229.97 L 317.138 229.397 L 317.138 229.397 Z " fill="rgb(255,255,255)"/><path d=" M 317.071 234.109 L 317.087 232.931 L 333.125 233.505 L 333.108 234.682 L 317.071 234.109 L 317.071 234.109 Z " fill="rgb(255,255,255)"/><path d=" M 308.821 140.434 L 277.866 139.733 C 274.769 127.739 276.163 116.318 278.634 105.794 L 309.589 106.495 C 306.458 117.56 306.194 129.239 308.821 140.434 L 308.821 140.434 Z " fill="rgb(149,149,149)"/><path d=" M 283.938 113.295 L 283.954 112.117 L 299.992 112.69 L 299.974 113.868 L 283.938 113.295 L 283.938 113.295 Z " fill="rgb(255,255,255)"/><path d=" M 283.87 118.006 L 283.887 116.829 L 299.924 117.402 L 299.907 118.58 L 283.87 118.006 L 283.87 118.006 Z " fill="rgb(255,255,255)"/><path d=" M 283.802 122.718 L 283.819 121.54 L 299.856 122.114 L 299.84 123.291 L 283.802 122.718 L 283.802 122.718 Z " fill="rgb(255,255,255)"/><path d=" M 283.735 127.429 L 283.751 126.251 L 299.789 126.825 L 299.772 128.003 L 283.735 127.429 L 283.735 127.429 Z " fill="rgb(255,255,255)"/><path d=" M 283.668 132.141 L 283.684 130.963 L 299.722 131.536 L 299.704 132.714 L 283.668 132.141 L 283.668 132.141 Z " fill="rgb(255,255,255)"/><path d=" M 340.555 217.39 C 342.716 216.858 344.53 215.396 345.51 213.398 C 346.489 211.399 346.533 209.07 345.63 207.036 L 365.148 188.781 L 351.645 185.536 L 335.18 203.369 C 331.79 205.152 330.269 209.189 331.64 212.767 C 333.011 216.344 336.841 218.33 340.555 217.39 L 340.555 217.39 Z " fill="rgb(255,182,182)"/><path d=" M 350.638 202.686 L 341.535 189.852 L 375.725 154.489 L 383.664 98.749 C 384.459 93.171 387.693 88.235 392.49 85.28 C 397.287 82.324 403.15 81.656 408.49 83.455 L 408.49 83.455 C 418.404 86.809 423.733 97.556 420.4 107.478 L 400.145 167.573 L 350.638 202.686 Z " fill="rgb(149,149,149)"/><path d=" M 414.834 440.192 L 404.729 440.192 L 399.922 401.216 L 414.836 401.217 L 414.834 440.192 L 414.834 440.192 Z " fill="rgb(255,182,182)"/><path d=" M 420.27 459.379 L 413.1 459.379 L 411.82 452.609 L 408.542 459.379 L 389.525 459.379 C 387.654 459.379 386.001 458.162 385.444 456.376 C 384.887 454.59 385.557 452.649 387.096 451.586 L 402.283 441.098 L 402.283 434.254 L 418.256 435.208 L 420.27 459.379 Z " fill="rgb(235,235,235)"/><path d=" M 477.175 429.91 L 468.299 434.739 L 445.447 402.802 L 458.547 395.674 L 477.175 429.91 L 477.175 429.91 Z " fill="rgb(255,182,182)"/><path d=" M 491.12 444.164 L 484.822 447.591 L 480.462 442.257 L 480.818 449.77 L 464.114 458.859 C 462.471 459.754 460.437 459.476 459.094 458.173 C 457.751 456.87 457.412 454.845 458.256 453.176 L 466.582 436.704 L 463.311 430.693 L 477.797 423.896 L 491.12 444.164 Z " fill="rgb(235,235,235)"/><path d=" M 419.091 426.313 L 398.209 426.313 L 398.209 351.952 L 385.281 303.472 C 376.002 268.803 373.536 232.662 378.02 197.053 L 378.038 196.908 L 378.15 196.814 C 378.482 196.535 411.57 169.176 432.5 190.105 C 446.607 204.212 433.351 254.94 432.609 257.724 L 432.609 345.173 L 419.091 426.313 Z " fill="rgb(235,235,235)"/><path d=" M 371.66 210.561 L 378.391 143.255 C 377.516 141.42 364.93 129.794 378.09 109.354 L 392.305 75.987 L 418.927 75.573 L 419.039 75.685 C 431.759 88.378 437.276 106.599 433.732 124.216 L 425.888 163.438 L 432.685 190.625 L 371.66 210.561 Z " fill="rgb(149,149,149)"/><path d=" M 406.633 352.336 L 449.532 412.677 L 465.989 400.977 L 430.16 327.351 L 406.633 352.336 L 406.633 352.336 Z " fill="rgb(235,235,235)"/><circle vector-effect="non-scaling-stroke" cx="403.1283209960279" cy="44.622489418949215" r="24.5815400284622" fill="rgb(255,182,182)"/><g style="opacity:0.1;"><g opacity="0.1"><path d=" M 397.087 133.533 L 403.817 173.917 L 397.087 207.569 L 383.626 207.569 L 389.745 173.917 L 397.087 133.533 L 397.087 133.533 Z " fill="rgb(0,0,0)"/></g></g><path d=" M 403.508 242.243 C 405.164 240.757 406.077 238.612 406 236.388 C 405.923 234.164 404.865 232.088 403.11 230.719 L 411.735 205.425 L 398.294 208.92 L 392.165 232.404 C 390.013 235.573 390.572 239.852 393.466 242.362 C 396.36 244.872 400.674 244.821 403.508 242.243 Z " fill="rgb(255,182,182)"/><path d=" M 405.48 224.524 L 391.407 217.487 L 404.92 170.191 L 385.679 117.278 C 383.754 111.983 384.283 106.106 387.124 101.24 C 389.965 96.374 394.822 93.024 400.38 92.097 L 400.38 92.097 C 410.706 90.388 420.467 97.36 422.199 107.682 L 432.624 170.236 L 405.48 224.524 Z " fill="rgb(149,149,149)"/><path d=" M 599.169 458.486 C 599.17 458.722 599.076 458.949 598.909 459.116 C 598.742 459.283 598.515 459.376 598.279 459.376 L 114.208 459.376 C 113.89 459.376 113.597 459.206 113.438 458.931 C 113.279 458.655 113.279 458.316 113.438 458.041 C 113.597 457.765 113.89 457.596 114.208 457.596 L 598.279 457.596 C 598.77 457.597 599.168 457.995 599.169 458.486 Z " fill="rgb(202,202,202)"/><path d=" M 498.732 43.421 C 495.63 48.455 489.061 50.675 483.234 49.666 C 477.408 48.658 472.345 44.898 468.606 40.317 C 464.866 35.737 462.279 30.345 459.734 25.008 C 457.188 19.671 454.613 14.275 450.893 9.68 C 447.172 5.084 442.136 1.294 436.318 0.239 C 433.151 -0.336 429.565 0.044 427.254 2.284 C 425.661 3.963 424.792 6.2 424.833 8.514 C 422.788 7.794 420.519 8.14 418.781 9.436 C 417.043 10.732 416.064 12.808 416.171 14.973 C 416.085 14.972 416 14.966 415.914 14.966 C 405.073 8.802 388.618 12.383 388.618 19.114 C 382.67 19.114 375.399 24.988 375.399 33.909 L 375.399 33.909 C 387.7 33.909 394.939 49.669 387.758 60.97 C 385.904 63.852 383.861 66.608 381.641 69.219 L 397.023 69.219 C 398.314 67.367 399.092 65.208 399.28 62.958 C 399.845 65.002 400.183 67.101 400.287 69.219 C 400.287 69.219 442.304 74.633 431.46 32.752 C 432.177 32.716 432.875 32.505 433.492 32.136 C 435.13 31.149 436.022 29.062 436.178 26.943 Q 436.786 27.106 437.39 27.268 C 440.281 28.048 443.284 29.059 445.268 31.302 C 448.621 35.092 447.916 40.845 449.134 45.757 C 450.602 51.681 454.995 56.472 459.875 60.137 C 465.119 64.074 471.244 67.066 477.771 67.687 C 484.299 68.308 491.245 66.323 495.768 61.575 C 500.291 56.828 501.866 49.18 498.732 43.421 Z " fill="rgb(235,235,235)"/></g></g></g></g></svg>