<?xml version="1.0" encoding="UTF-8" standalone="no"?><!-- Generator: Gravit.io --><svg xmlns="http://www.w3.org/2000/svg" xmlns:xlink="http://www.w3.org/1999/xlink" style="isolation:isolate" viewBox="0 0 622.529 459.731" width="622.529pt" height="459.731pt"><defs><clipPath id="_clipPath_RxaH8SaRKMa2kxYngMhL8Ktth86D3NWK"><rect width="622.529" height="459.731"/></clipPath></defs><g clip-path="url(#_clipPath_RxaH8SaRKMa2kxYngMhL8Ktth86D3NWK)"><g><path d=" M 265.381 311.633 C 265.381 311.633 348.054 301.704 376.99 285.984 C 376.99 285.984 620.876 262.818 620.876 311.633 C 620.876 360.447 373.683 381.959 373.683 381.959 L 243.886 374.512 L 265.381 311.633 Z " fill="rgb(251,190,190)"/><g opacity="0.1"><path d=" M 265.381 311.633 C 265.381 311.633 348.054 301.704 376.99 285.984 C 376.99 285.984 620.876 262.818 620.876 311.633 C 620.876 360.447 373.683 381.959 373.683 381.959 L 243.886 374.512 L 265.381 311.633 Z " fill="rgb(0,0,0)"/></g><path d=" M 289.356 302.532 L 271.995 353.001 L 0 356.31 L 0 281.848 C 0 281.848 104.168 257.854 186.841 309.151 C 186.841 309.151 284.396 297.567 289.356 302.532 Z " fill="rgb(7,232,89)"/><g opacity="0.1"><path d=" M 289.356 302.45 L 271.995 352.92 L 0 356.229 L 0 281.766 C 0 281.766 104.168 257.773 186.841 309.069 C 186.841 309.069 284.396 297.486 289.356 302.45 Z " fill="rgb(0,0,0)"/></g><path d=" M 600.329 281.434 C 600.329 284.254 594.01 286.347 593.389 289.067 C 592.773 291.765 596.527 295.868 595.339 298.445 C 594.111 301.079 592.66 303.604 591.003 305.992 C 589.447 308.222 584.639 307.896 582.668 309.987 C 580.738 311.886 578.694 313.666 576.546 315.315 C 574.455 317.055 571.621 317.421 569.243 319.023 C 566.981 320.547 567.255 326.136 564.753 327.524 C 562.363 328.85 558.704 327.783 556.111 328.975 C 553.622 330.119 552.309 334.256 549.648 335.268 C 547.082 336.244 543.906 335.824 541.193 336.669 C 538.567 337.487 535.63 337.354 532.878 338.043 C 530.207 338.711 528.166 342.719 525.387 343.26 C 522.679 343.786 519.505 342.382 516.705 342.781 C 513.971 343.17 510.791 339.707 507.978 339.969 C 505.225 340.226 502.63 341.829 499.811 341.959 C 497.046 342.086 494.313 343.304 491.492 343.304 C 488.672 343.304 485.762 345.952 482.998 345.825 C 480.178 345.695 477.626 341.682 474.873 341.426 C 472.06 341.163 468.704 345.355 465.97 344.966 C 463.17 344.567 460.952 340.464 458.244 339.937 C 455.464 339.397 451.873 342.329 449.201 341.661 C 446.449 340.972 444.816 336.199 442.19 335.38 C 439.477 334.535 436.114 335.68 433.548 334.704 C 430.887 333.692 427.645 333.855 425.156 332.711 C 422.563 331.519 420.701 328.699 418.311 327.373 C 415.81 325.985 414.656 322.544 412.395 321.02 C 410.016 319.417 406.392 319.622 404.3 317.881 C 402.092 316.043 397.954 315.947 396.091 313.969 C 394.12 311.878 393.322 308.366 391.766 306.136 C 390.127 303.787 393.344 298.821 392.199 296.338 C 391.012 293.762 386.047 292.715 385.431 290.018 C 384.796 287.2 384.47 284.322 384.459 281.434 C 384.459 278.614 388.705 276.459 389.326 273.739 C 389.942 271.041 386.817 267.166 388.005 264.589 C 389.15 262.106 389.003 258.29 390.643 255.941 C 392.199 253.711 396.083 252.836 398.054 250.745 C 399.918 248.768 403.253 248.216 405.462 246.378 C 407.553 244.638 407.287 239.388 409.665 237.785 C 411.927 236.262 415.084 235.566 417.586 234.179 C 419.976 232.853 423.359 233.076 425.952 231.884 C 428.441 230.741 432.339 232.995 435 231.983 C 437.566 231.007 439.648 228.874 442.36 228.029 C 444.986 227.211 446.22 220.973 448.971 220.284 C 451.643 219.616 454.931 220.726 457.71 220.185 C 460.418 219.659 464.061 224.581 466.862 224.182 C 469.596 223.792 471.641 217.222 474.454 216.96 C 477.207 216.703 480.311 220.106 483.131 219.977 C 485.896 219.85 488.672 221.844 491.492 221.844 C 494.312 221.844 497.122 219.107 499.886 219.234 C 502.705 219.364 505.192 222.98 507.945 223.237 C 510.758 223.499 514.211 217.998 516.946 218.388 C 519.746 218.786 521.909 223.038 524.617 223.565 C 527.397 224.105 530.879 221.465 533.552 222.134 C 536.303 222.823 537.959 227.343 540.585 228.161 C 543.298 229.006 544.969 232.194 547.535 233.17 C 550.197 234.182 555.14 229.447 557.629 230.591 C 560.222 231.783 562.462 233.846 564.852 235.172 C 567.354 236.559 571.331 235.862 573.592 237.385 C 575.971 238.988 576.556 243.29 578.648 245.031 C 580.856 246.869 584.498 247.423 586.362 249.4 C 588.333 251.492 588.607 255.239 590.163 257.47 C 591.802 259.819 591.751 263.073 592.895 265.556 C 594.082 268.132 597.253 270.08 597.869 272.778 C 598.489 275.497 600.329 278.615 600.329 281.434 Z " fill="rgb(235,235,235)"/><path d=" M 302.584 333.144 C 302.584 333.144 396.005 285.157 456.356 303.359 C 516.707 321.561 601.034 290.121 610.955 300.877 C 620.876 311.633 634.93 427.464 515.881 434.083 C 396.831 440.701 295.143 414.226 295.143 414.226 L 302.584 333.144 Z " fill="rgb(251,190,190)"/><path d=" M 280.584 328.034 C 280.584 328.034 317.465 325.698 315.812 338.936 C 314.158 352.173 312.505 454.767 302.584 457.249 C 292.663 459.731 214.124 459.731 181.881 459.731 L 0 459.731 L 0 301.115 C 0 301.115 128.97 293.431 193.455 325.698 C 193.455 325.698 270.984 324.578 280.584 328.034 Z " fill="rgb(7,232,89)"/><mask id="_mask_PVACX4zsPHCyp4XgmtSJ0nFNp2iRFiKu" x="-200" y="-200" width="400" height="400"><rect x="-200" y="-200" width="400" height="400" style="fill:white;"/><path d=" M 453.364 79.935 C 446.176 80.342 439.835 84.779 436.986 91.395 C 432.891 101.302 438.164 112.939 446.08 120.163 C 453.995 127.387 464.163 131.516 473.402 136.944 C 485.81 144.234 496.961 154.354 503.17 167.344 C 509.379 180.335 510.039 196.426 502.741 208.837 C 495.967 220.355 483.649 227.249 471.902 233.608" fill="black" stroke="none"/></mask><path d=" M 453.364 79.935 C 446.176 80.342 439.835 84.779 436.986 91.395 C 432.891 101.302 438.164 112.939 446.08 120.163 C 453.995 127.387 464.163 131.516 473.402 136.944 C 485.81 144.234 496.961 154.354 503.17 167.344 C 509.379 180.335 510.039 196.426 502.741 208.837 C 495.967 220.355 483.649 227.249 471.902 233.608" fill="none"/><path d=" M 453.364 79.935 C 446.176 80.342 439.835 84.779 436.986 91.395 C 432.891 101.302 438.164 112.939 446.08 120.163 C 453.995 127.387 464.163 131.516 473.402 136.944 C 485.81 144.234 496.961 154.354 503.17 167.344 C 509.379 180.335 510.039 196.426 502.741 208.837 C 495.967 220.355 483.649 227.249 471.902 233.608" fill="none" mask="url(#_mask_PVACX4zsPHCyp4XgmtSJ0nFNp2iRFiKu)" vector-effect="non-scaling-stroke" stroke-width="1.405" stroke="rgb(235,235,235)" stroke-linejoin="miter" stroke-linecap="butt" stroke-miterlimit="10"/><mask id="_mask_4l9xcdAp2DhulwJdK8Trij4fBDum6eTB" x="-200" y="-200" width="400" height="400"><rect x="-200" y="-200" width="400" height="400" style="fill:white;"/><path d=" M 486.433 19.538 C 479.245 19.944 472.904 24.381 470.056 30.998 C 465.96 40.904 471.233 52.541 479.149 59.765 C 487.064 66.989 497.232 71.119 506.471 76.546 C 518.88 83.836 530.03 93.956 536.239 106.947 C 542.448 119.937 543.108 136.029 535.81 148.439 C 529.036 159.958 516.719 166.852 504.971 173.21" fill="black" stroke="none"/></mask><path d=" M 486.433 19.538 C 479.245 19.944 472.904 24.381 470.056 30.998 C 465.96 40.904 471.233 52.541 479.149 59.765 C 487.064 66.989 497.232 71.119 506.471 76.546 C 518.88 83.836 530.03 93.956 536.239 106.947 C 542.448 119.937 543.108 136.029 535.81 148.439 C 529.036 159.958 516.719 166.852 504.971 173.21" fill="none"/><path d=" M 486.433 19.538 C 479.245 19.944 472.904 24.381 470.056 30.998 C 465.96 40.904 471.233 52.541 479.149 59.765 C 487.064 66.989 497.232 71.119 506.471 76.546 C 518.88 83.836 530.03 93.956 536.239 106.947 C 542.448 119.937 543.108 136.029 535.81 148.439 C 529.036 159.958 516.719 166.852 504.971 173.21" fill="none" mask="url(#_mask_4l9xcdAp2DhulwJdK8Trij4fBDum6eTB)" vector-effect="non-scaling-stroke" stroke-width="1.405" stroke="rgb(235,235,235)" stroke-linejoin="miter" stroke-linecap="butt" stroke-miterlimit="10"/><mask id="_mask_E3vwUXGBRk04nePS8FbmyocsdRdpQvhY" x="-200" y="-200" width="400" height="400"><rect x="-200" y="-200" width="400" height="400" style="fill:white;"/><path d=" M 595.162 33.429 C 589.23 29.347 581.502 28.97 575.202 32.457 C 565.904 37.781 562.955 50.213 564.795 60.775 C 566.635 71.337 572.149 80.831 576.134 90.783 C 581.487 104.149 584.113 118.983 581.076 133.058 C 578.039 147.134 568.718 160.262 555.356 165.604 C 542.953 170.563 528.997 168.468 515.818 166.298" fill="black" stroke="none"/></mask><path d=" M 595.162 33.429 C 589.23 29.347 581.502 28.97 575.202 32.457 C 565.904 37.781 562.955 50.213 564.795 60.775 C 566.635 71.337 572.149 80.831 576.134 90.783 C 581.487 104.149 584.113 118.983 581.076 133.058 C 578.039 147.134 568.718 160.262 555.356 165.604 C 542.953 170.563 528.997 168.468 515.818 166.298" fill="none"/><path d=" M 595.162 33.429 C 589.23 29.347 581.502 28.97 575.202 32.457 C 565.904 37.781 562.955 50.213 564.795 60.775 C 566.635 71.337 572.149 80.831 576.134 90.783 C 581.487 104.149 584.113 118.983 581.076 133.058 C 578.039 147.134 568.718 160.262 555.356 165.604 C 542.953 170.563 528.997 168.468 515.818 166.298" fill="none" mask="url(#_mask_E3vwUXGBRk04nePS8FbmyocsdRdpQvhY)" vector-effect="non-scaling-stroke" stroke-width="1.405" stroke="rgb(235,235,235)" stroke-linejoin="miter" stroke-linecap="butt" stroke-miterlimit="10"/><ellipse vector-effect="non-scaling-stroke" cx="499.34612224158025" cy="148.64189357712934" rx="19.841565165412618" ry="9.644705299627816" fill="rgb(87,184,148)"/><ellipse vector-effect="non-scaling-stroke" cx="496.8659265959037" cy="146.9871676565623" rx="19.841565165412618" ry="9.644705299627816" fill="none" stroke-width="0.703" stroke="rgb(235,235,235)" stroke-linejoin="miter" stroke-linecap="butt" stroke-miterlimit="10"/><ellipse vector-effect="non-scaling-stroke" cx="542.3361894683593" cy="140.36825694263175" rx="19.84156516541259" ry="9.644705299627816" fill="rgb(87,184,148)"/><ellipse vector-effect="non-scaling-stroke" cx="539.8559938226828" cy="138.71352399040242" rx="19.84156516541259" ry="9.644705299627816" fill="none" stroke-width="0.703" stroke="rgb(235,235,235)" stroke-linejoin="miter" stroke-linecap="butt" stroke-miterlimit="10"/><ellipse vector-effect="non-scaling-stroke" cx="548.9500421814006" cy="176.7722834484053" rx="19.84156516541259" ry="9.644705299627816" fill="rgb(87,184,148)"/><ellipse vector-effect="non-scaling-stroke" cx="546.4698465357238" cy="175.117550496176" rx="19.84156516541259" ry="9.644705299627816" fill="none" stroke-width="0.703" stroke="rgb(235,235,235)" stroke-linejoin="miter" stroke-linecap="butt" stroke-miterlimit="10"/><ellipse vector-effect="non-scaling-stroke" cx="544.8163851140358" cy="85.76221015230912" rx="19.84156516541259" ry="9.64470529962783" fill="rgb(87,184,148)"/><ellipse vector-effect="non-scaling-stroke" cx="542.3361894683593" cy="84.10748423174205" rx="19.84156516541259" ry="9.64470529962783" fill="none" stroke-width="0.703" stroke="rgb(235,235,235)" stroke-linejoin="miter" stroke-linecap="butt" stroke-miterlimit="10"/><ellipse vector-effect="non-scaling-stroke" cx="495.2124651742156" cy="79.97066591449324" rx="19.841565165412618" ry="9.64470529962783" fill="rgb(87,184,148)"/><ellipse vector-effect="non-scaling-stroke" cx="492.73226952853895" cy="78.31593296226393" rx="19.841565165412618" ry="9.64470529962783" fill="none" stroke-width="0.703" stroke="rgb(235,235,235)" stroke-linejoin="miter" stroke-linecap="butt" stroke-miterlimit="10"/><ellipse vector-effect="non-scaling-stroke" cx="517.5342259853047" cy="59.2865602649247" rx="19.841565165412618" ry="9.644705299627827" fill="rgb(87,184,148)"/><ellipse vector-effect="non-scaling-stroke" cx="515.054030339628" cy="57.63182731269538" rx="19.841565165412618" ry="9.644705299627827" fill="none" stroke-width="0.703" stroke="rgb(235,235,235)" stroke-linejoin="miter" stroke-linecap="butt" stroke-miterlimit="10"/><ellipse vector-effect="non-scaling-stroke" cx="566.3114187274253" cy="63.42337858217353" rx="19.84156516541259" ry="9.64470529962783" fill="rgb(87,184,148)"/><ellipse vector-effect="non-scaling-stroke" cx="563.8312230817488" cy="61.76865266160644" rx="19.84156516541259" ry="9.644705299627827" fill="none" stroke-width="0.703" stroke="rgb(235,235,235)" stroke-linejoin="miter" stroke-linecap="butt" stroke-miterlimit="10"/><ellipse vector-effect="non-scaling-stroke" cx="602.6876262148745" cy="90.72640197733483" rx="19.84156516541259" ry="9.64470529962783" fill="rgb(87,184,148)"/><ellipse vector-effect="non-scaling-stroke" cx="600.207430569198" cy="89.0716690251055" rx="19.84156516541259" ry="9.64470529962783" fill="none" stroke-width="0.703" stroke="rgb(235,235,235)" stroke-linejoin="miter" stroke-linecap="butt" stroke-miterlimit="10"/><ellipse vector-effect="non-scaling-stroke" cx="474.54416578481437" cy="42.739272932605" rx="19.841565165412646" ry="9.64470529962783" fill="rgb(87,184,148)"/><ellipse vector-effect="non-scaling-stroke" cx="472.0639701391379" cy="41.08454701203793" rx="19.841565165412646" ry="9.64470529962783" fill="none" stroke-width="0.703" stroke="rgb(235,235,235)" stroke-linejoin="miter" stroke-linecap="butt" stroke-miterlimit="10"/><ellipse vector-effect="non-scaling-stroke" cx="486.94514401319725" cy="11.299431220194885" rx="19.841565165412646" ry="9.644705299627827" fill="rgb(87,184,148)"/><ellipse vector-effect="non-scaling-stroke" cx="484.4649483675207" cy="9.644705299627818" rx="19.841565165412646" ry="9.644705299627828" fill="none" stroke-width="0.703" stroke="rgb(235,235,235)" stroke-linejoin="miter" stroke-linecap="butt" stroke-miterlimit="10"/><ellipse vector-effect="non-scaling-stroke" cx="601.860891990886" cy="34.46562926644515" rx="19.84156516541259" ry="9.64470529962783" fill="rgb(87,184,148)"/><ellipse vector-effect="non-scaling-stroke" cx="599.3806963452095" cy="32.81090334587807" rx="19.84156516541259" ry="9.64470529962783" fill="none" stroke-width="0.703" stroke="rgb(235,235,235)" stroke-linejoin="miter" stroke-linecap="butt" stroke-miterlimit="10"/><ellipse vector-effect="non-scaling-stroke" cx="419.15312032965244" cy="110.58314115078873" rx="19.841565165412646" ry="9.64470529962783" fill="rgb(87,184,148)"/><ellipse vector-effect="non-scaling-stroke" cx="416.6729246839758" cy="108.92841523022165" rx="19.841565165412646" ry="9.64470529962783" fill="none" stroke-width="0.703" stroke="rgb(235,235,235)" stroke-linejoin="miter" stroke-linecap="butt" stroke-miterlimit="10"/><ellipse vector-effect="non-scaling-stroke" cx="487.7718782371858" cy="105.61895635742528" rx="19.841565165412646" ry="9.64470529962783" fill="rgb(87,184,148)"/><ellipse vector-effect="non-scaling-stroke" cx="485.29168259150924" cy="103.9642304368582" rx="19.841565165412646" ry="9.64470529962783" fill="none" stroke-width="0.703" stroke="rgb(235,235,235)" stroke-linejoin="miter" stroke-linecap="butt" stroke-miterlimit="10"/><ellipse vector-effect="non-scaling-stroke" cx="577.8856627318197" cy="113.06523354747046" rx="19.84156516541259" ry="9.64470529962783" fill="rgb(87,184,148)"/><ellipse vector-effect="non-scaling-stroke" cx="575.4054670861432" cy="111.41050762690337" rx="19.84156516541259" ry="9.64470529962783" fill="none" stroke-width="0.703" stroke="rgb(235,235,235)" stroke-linejoin="miter" stroke-linecap="butt" stroke-miterlimit="10"/><ellipse vector-effect="non-scaling-stroke" cx="529.9352112399764" cy="116.37469242026681" rx="19.841565165412618" ry="9.64470529962783" fill="rgb(87,184,148)"/><ellipse vector-effect="non-scaling-stroke" cx="527.4550155942999" cy="114.71995946803753" rx="19.841565165412618" ry="9.64470529962783" fill="none" stroke-width="0.703" stroke="rgb(235,235,235)" stroke-linejoin="miter" stroke-linecap="butt" stroke-miterlimit="10"/><ellipse vector-effect="non-scaling-stroke" cx="533.2421340833527" cy="33.638262790330465" rx="19.84156516541259" ry="9.64470529962783" fill="rgb(87,184,148)"/><ellipse vector-effect="non-scaling-stroke" cx="530.7619384376759" cy="31.98353686976341" rx="19.841565165412618" ry="9.644705299627827" fill="none" stroke-width="0.703" stroke="rgb(235,235,235)" stroke-linejoin="miter" stroke-linecap="butt" stroke-miterlimit="10"/><ellipse vector-effect="non-scaling-stroke" cx="448.08874088007167" cy="84.93485070785671" rx="19.841565165412646" ry="9.64470529962783" fill="rgb(87,184,148)"/><ellipse vector-effect="non-scaling-stroke" cx="445.60854523439514" cy="83.2801177556274" rx="19.841565165412646" ry="9.64470529962783" fill="none" stroke-width="0.703" stroke="rgb(235,235,235)" stroke-linejoin="miter" stroke-linecap="butt" stroke-miterlimit="10"/><ellipse vector-effect="non-scaling-stroke" cx="459.66299191075495" cy="122.16624368974496" rx="19.841565165412646" ry="9.644705299627823" fill="rgb(87,184,148)"/><ellipse vector-effect="non-scaling-stroke" cx="457.18278923878955" cy="120.51151073751561" rx="19.841565165412646" ry="9.644705299627823" fill="none" stroke-width="0.703" stroke="rgb(235,235,235)" stroke-linejoin="miter" stroke-linecap="butt" stroke-miterlimit="10"/><g style="opacity:0.3;"><g opacity="0.3"><path d=" M 451.124 194.903 C 448.955 193.69 449.466 188.637 452.265 183.625 C 455.064 178.613 459.097 175.529 461.266 176.742 C 463.435 177.955 462.923 183.009 460.125 188.021 C 457.326 193.032 453.292 196.116 451.124 194.903 Z " fill="rgb(87,184,148)"/></g><g opacity="0.3"><path d=" M 449.816 195.661 C 447.647 194.448 448.158 189.395 450.957 184.383 C 453.756 179.371 457.789 176.287 459.958 177.5 C 462.127 178.713 461.615 183.767 458.816 188.779 C 456.017 193.79 451.984 196.874 449.816 195.661 Z " fill="none" vector-effect="non-scaling-stroke" stroke-width="0.703" stroke="rgb(63,61,86)" stroke-linejoin="miter" stroke-linecap="butt" stroke-miterlimit="10"/></g></g><g style="opacity:0.3;"><g opacity="0.3"><path d=" M 552.8 208.482 C 548.525 204.653 546.399 200.04 548.056 198.188 C 549.713 196.335 554.529 197.939 558.804 201.768 C 563.079 205.597 565.205 210.21 563.548 212.063 C 561.891 213.916 557.075 212.311 552.8 208.482 Z " fill="rgb(87,184,148)"/></g><g opacity="0.3"><path d=" M 552.347 207.039 C 548.072 203.21 545.946 198.597 547.603 196.744 C 549.26 194.892 554.076 196.496 558.351 200.325 C 562.626 204.154 564.752 208.767 563.095 210.62 C 561.438 212.472 556.622 210.868 552.347 207.039 Z " fill="none" vector-effect="non-scaling-stroke" stroke-width="0.703" stroke="rgb(63,61,86)" stroke-linejoin="miter" stroke-linecap="butt" stroke-miterlimit="10"/></g></g><g style="opacity:0.3;"><g opacity="0.3"><path d=" M 460.206 156.358 C 455.931 152.529 453.805 147.916 455.462 146.064 C 457.119 144.211 461.935 145.815 466.21 149.644 C 470.485 153.473 472.611 158.086 470.954 159.939 C 469.297 161.792 464.481 160.187 460.206 156.358 Z " fill="rgb(87,184,148)"/></g><g opacity="0.3"><path d=" M 459.753 154.915 C 455.478 151.086 453.352 146.473 455.009 144.621 C 456.666 142.768 461.482 144.372 465.757 148.201 C 470.032 152.03 472.158 156.643 470.501 158.496 C 468.844 160.348 464.028 158.744 459.753 154.915 Z " fill="none" vector-effect="non-scaling-stroke" stroke-width="0.703" stroke="rgb(63,61,86)" stroke-linejoin="miter" stroke-linecap="butt" stroke-miterlimit="10"/></g></g></g></g></svg>