<?xml version="1.0" encoding="UTF-8" standalone="no"?><!-- Generator: Gravit.io --><svg xmlns="http://www.w3.org/2000/svg" xmlns:xlink="http://www.w3.org/1999/xlink" style="isolation:isolate" viewBox="0 0 889.076 459.38" width="889.076pt" height="459.38pt"><defs><clipPath id="_clipPath_z6En6oAeeLBERr1mgRI0i5Csr4HejFPN"><rect width="889.076" height="459.38"/></clipPath></defs><g clip-path="url(#_clipPath_z6En6oAeeLBERr1mgRI0i5Csr4HejFPN)"><ellipse vector-effect="non-scaling-stroke" cx="444.53778" cy="398.16856" rx="444.53778" ry="12.434619999999995" fill="rgb(85,85,85)"/><path d=" M 681.445 263.431 C 680.884 263.439 680.322 263.447 679.753 263.447 C 679.184 263.447 678.623 263.439 678.062 263.431 C 648.304 262.755 626.736 244.162 632.226 224.654 L 645.613 177.066 L 648.996 165.024 L 708.973 166.047 L 712.617 177.827 L 726.965 224.193 C 733.04 243.808 711.472 262.755 681.445 263.431 Z " fill="rgb(235,235,235)"/><g opacity="0.2"><path d=" M 712.617 177.827 C 691.794 189.73 666.161 189.439 645.613 177.066 L 648.996 165.024 L 708.973 166.047 L 712.617 177.827 Z " fill="rgb(0,0,0)"/></g><path d=" M 710.086 226.233 C 712.677 216.577 721.192 202.648 745.073 185.854 C 786.72 156.559 761.876 134.594 760.799 133.674 C 758.541 131.744 758.874 129.576 761.575 128.835 C 764.748 128.201 768.041 128.968 770.609 130.938 C 771.957 132.054 803.068 158.621 756.072 191.672 C 713.777 221.422 722.769 240.842 722.872 241.028 C 724.006 243.105 722.189 244.767 718.81 244.744 C 715.43 244.722 711.77 243.022 710.633 240.947 C 710.394 240.508 707.673 235.223 710.086 226.233 Z " fill="rgb(235,235,235)"/><path d=" M 652.072 270.367 C 650.237 270.367 648.477 269.638 647.179 268.34 C 645.881 267.042 645.152 265.282 645.152 263.447 L 645.152 233.459 C 645.152 229.637 648.25 226.538 652.072 226.538 C 655.894 226.538 658.992 229.637 658.992 233.459 L 658.992 263.447 C 658.992 265.282 658.263 267.042 656.966 268.34 C 655.668 269.638 653.908 270.367 652.072 270.367 L 652.072 270.367 Z " fill="rgb(235,235,235)"/><path d=" M 658.14 199.174 C 657.373 200.841 655.975 202.136 654.253 202.772 C 652.532 203.409 650.628 203.335 648.96 202.568 L 621.717 190.034 C 618.25 188.434 616.733 184.327 618.33 180.858 C 619.926 177.388 624.031 175.868 627.502 177.46 L 654.745 189.995 C 656.413 190.762 657.707 192.16 658.344 193.881 C 658.98 195.603 658.907 197.507 658.14 199.174 L 658.14 199.174 Z " fill="rgb(235,235,235)"/><path d=" M 701.367 199.174 C 702.134 200.841 703.532 202.136 705.254 202.772 C 706.975 203.409 708.879 203.335 710.546 202.568 L 737.789 190.034 C 741.262 188.437 742.781 184.327 741.184 180.855 C 739.586 177.383 735.477 175.863 732.004 177.46 L 704.761 189.995 C 703.094 190.762 701.8 192.16 701.163 193.881 C 700.526 195.603 700.6 197.507 701.367 199.174 Z " fill="rgb(235,235,235)"/><path d=" M 707.435 270.367 C 709.27 270.367 711.03 269.638 712.328 268.34 C 713.626 267.042 714.355 265.282 714.355 263.447 L 714.355 233.459 C 714.355 229.637 711.257 226.538 707.435 226.538 C 703.613 226.538 700.514 229.637 700.514 233.459 L 700.514 263.447 C 700.514 265.282 701.243 267.042 702.541 268.34 C 703.839 269.638 705.599 270.367 707.435 270.367 L 707.435 270.367 Z " fill="rgb(235,235,235)"/><path d=" M 736.356 76.225 C 737.565 74.701 738.065 72.733 737.729 70.816 L 733.963 48.659 L 730.196 26.502 C 729.782 24.067 728.101 22.038 725.785 21.179 C 723.47 20.32 720.872 20.762 718.97 22.338 L 701.665 36.678 L 691.239 45.318 C 684.286 44.081 677.179 43.974 670.192 45 L 660.149 36.678 L 642.844 22.338 C 640.942 20.762 638.344 20.32 636.028 21.179 C 633.713 22.038 632.031 24.067 631.617 26.502 L 627.851 48.659 L 624.085 70.816 C 623.883 71.981 623.987 73.178 624.386 74.29 C 606.517 101.683 611.361 138.024 635.781 159.78 C 660.2 181.536 696.857 182.17 722.014 161.27 C 747.171 140.37 753.267 104.218 736.356 76.225 L 736.356 76.225 Z " fill="rgb(235,235,235)"/><path d=" M 641.109 31.418 C 640.699 31.418 640.292 31.492 639.907 31.636 C 638.757 32.055 637.921 33.062 637.723 34.271 L 633.156 61.141 C 632.951 62.346 633.405 63.569 634.346 64.349 C 635.288 65.13 636.574 65.348 637.721 64.923 L 663.274 55.443 C 664.42 55.018 665.252 54.014 665.457 52.808 C 665.662 51.603 665.209 50.38 664.267 49.6 L 664.267 49.599 L 643.281 32.209 C 642.672 31.699 641.904 31.419 641.109 31.418 Z " fill="rgb(85,85,85)"/><path d=" M 720.704 31.418 C 719.91 31.419 719.141 31.699 718.532 32.209 L 697.546 49.6 C 696.605 50.38 696.151 51.603 696.356 52.808 C 696.561 54.014 697.394 55.018 698.54 55.443 L 724.093 64.923 C 725.24 65.348 726.526 65.13 727.467 64.349 C 728.409 63.569 728.863 62.346 728.658 61.141 L 724.091 34.271 C 723.892 33.062 723.057 32.055 721.906 31.636 C 721.522 31.492 721.115 31.418 720.704 31.418 L 720.704 31.418 Z " fill="rgb(85,85,85)"/><circle vector-effect="non-scaling-stroke" cx="679.75342" cy="119.65771000000001" r="9.22709999999995" fill="rgb(85,85,85)"/><ellipse vector-effect="non-scaling-stroke" cx="679.75342" cy="115.04416" rx="6.151399999999967" ry="2.30677" fill="rgb(63,61,86)"/><path d=" M 675.14 125.04 L 683.598 125.04 L 683.598 135.421 C 683.598 137.756 681.705 139.65 679.369 139.65 L 679.369 139.65 C 677.033 139.65 675.14 137.756 675.14 135.421 L 675.14 125.04 L 675.14 125.04 Z " fill="rgb(255,101,132)"/><path d=" M 680.267 20.38 C 679.823 21.299 679.393 22.229 678.988 23.178 C 674.216 34.307 672.606 46.537 674.337 58.522 C 675.203 57.265 676.112 55.957 677.038 54.634 C 675.056 43.131 676.17 31.309 680.267 20.38 L 680.267 20.38 Z " fill="rgb(235,235,235)"/><path d=" M 687.187 28.838 C 686.744 29.757 686.313 30.687 685.908 31.636 C 681.136 42.765 679.527 54.995 681.257 66.98 C 682.123 65.724 683.033 64.415 683.958 63.092 C 681.976 51.59 683.091 39.767 687.187 28.838 L 687.187 28.838 Z " fill="rgb(235,235,235)"/><path d=" M 708.523 194.889 L 707.548 182.491 L 706.573 170.093 C 706.466 168.73 705.64 167.528 704.407 166.94 C 703.173 166.351 701.72 166.466 700.593 167.24 L 690.344 174.283 L 682.859 179.426 C 681.891 178.293 680.475 177.64 678.984 177.64 C 677.494 177.64 676.078 178.293 675.11 179.426 L 667.625 174.283 L 657.376 167.24 C 656.249 166.466 654.796 166.351 653.562 166.94 C 652.329 167.528 651.503 168.73 651.396 170.093 L 650.421 182.491 L 649.446 194.889 C 649.339 196.251 649.967 197.567 651.093 198.341 C 652.219 199.115 653.673 199.23 654.907 198.641 L 666.131 193.286 L 675.354 188.887 C 676.312 189.858 677.62 190.405 678.984 190.405 C 680.349 190.405 681.657 189.858 682.615 188.887 L 691.838 193.286 L 703.062 198.641 C 704.296 199.23 705.75 199.115 706.876 198.341 C 708.002 197.567 708.63 196.251 708.523 194.889 L 708.523 194.889 Z " fill="rgb(7,232,89)"/><circle vector-effect="non-scaling-stroke" cx="667.45062" cy="109.66168" r="2.3067700000000286" fill="rgb(85,85,85)"/><circle vector-effect="non-scaling-stroke" cx="692.05622" cy="109.66168" r="2.3067700000000286" fill="rgb(85,85,85)"/><path d=" M 233.425 243.052 C 233.987 243.059 234.548 243.067 235.117 243.067 C 235.686 243.067 236.247 243.059 236.809 243.052 C 266.566 242.375 288.134 223.783 282.644 204.275 L 269.257 156.686 L 265.874 144.645 L 205.898 145.667 L 202.253 157.447 L 187.905 203.814 C 181.831 223.429 203.399 242.375 233.425 243.052 Z " fill="rgb(235,235,235)"/><g opacity="0.2"><path d=" M 202.253 157.447 C 223.077 169.351 248.71 169.059 269.257 156.686 L 265.874 144.645 L 205.898 145.667 L 202.253 157.447 Z " fill="rgb(0,0,0)"/></g><path d=" M 197.5 200.214 C 191.026 192.595 177.37 183.649 148.599 178.688 C 98.422 170.032 111.479 139.548 112.058 138.256 C 113.273 135.545 112.044 133.728 109.286 134.215 C 106.146 134.999 103.498 137.101 102.021 139.981 C 101.279 141.566 84.529 178.891 141.148 188.654 C 192.105 197.444 192.287 218.844 192.273 219.056 C 192.138 221.419 194.491 222.143 197.536 220.677 C 200.58 219.211 203.161 216.108 203.301 213.746 C 203.329 213.247 203.527 207.306 197.5 200.214 Z " fill="rgb(235,235,235)"/><path d=" M 262.798 249.987 C 264.634 249.988 266.394 249.258 267.692 247.961 C 268.99 246.663 269.719 244.903 269.719 243.067 L 269.719 213.079 C 269.714 209.26 266.617 206.167 262.798 206.167 C 258.98 206.167 255.883 209.26 255.878 213.079 L 255.878 243.067 C 255.878 244.903 256.607 246.663 257.905 247.961 C 259.203 249.258 260.963 249.988 262.798 249.987 L 262.798 249.987 Z " fill="rgb(235,235,235)"/><path d=" M 256.731 178.794 C 257.498 180.462 258.896 181.756 260.617 182.393 C 262.339 183.029 264.243 182.956 265.91 182.189 L 293.153 169.655 C 295.402 168.623 296.929 166.469 297.158 164.006 C 297.387 161.542 296.283 159.144 294.263 157.715 C 292.244 156.286 289.615 156.044 287.368 157.081 L 260.125 169.615 C 258.458 170.382 257.163 171.78 256.527 173.502 C 255.89 175.223 255.963 177.127 256.731 178.794 Z " fill="rgb(235,235,235)"/><path d=" M 213.503 178.794 C 212.736 180.462 211.338 181.756 209.617 182.393 C 207.895 183.029 205.991 182.956 204.324 182.189 L 177.081 169.655 C 174.832 168.623 173.305 166.469 173.076 164.006 C 172.847 161.542 173.951 159.144 175.971 157.715 C 177.99 156.286 180.62 156.044 182.866 157.081 L 210.109 169.615 C 211.776 170.382 213.071 171.78 213.707 173.502 C 214.344 175.223 214.271 177.127 213.503 178.794 L 213.503 178.794 Z " fill="rgb(235,235,235)"/><path d=" M 207.436 249.987 C 205.6 249.988 203.84 249.258 202.542 247.961 C 201.245 246.663 200.515 244.903 200.515 243.067 L 200.515 213.079 C 200.52 209.26 203.617 206.167 207.436 206.167 C 211.255 206.167 214.352 209.26 214.356 213.079 L 214.356 243.067 C 214.356 244.903 213.627 246.663 212.329 247.961 C 211.031 249.258 209.271 249.988 207.436 249.987 L 207.436 249.987 Z " fill="rgb(235,235,235)"/><path d=" M 290.484 53.91 C 290.883 52.798 290.987 51.601 290.786 50.437 L 287.019 28.28 L 283.253 6.123 C 282.839 3.688 281.158 1.659 278.842 0.8 C 276.527 -0.059 273.929 0.382 272.027 1.958 L 254.722 16.299 L 244.679 24.621 C 237.692 23.595 230.585 23.702 223.632 24.938 L 213.206 16.299 L 195.9 1.958 C 193.999 0.382 191.401 -0.059 189.085 0.8 C 186.77 1.659 185.088 3.688 184.674 6.123 L 180.908 28.28 L 177.141 50.437 C 176.805 52.353 177.305 54.322 178.515 55.845 C 161.581 83.846 167.67 120.02 192.837 140.935 C 218.003 161.85 254.681 161.216 279.111 139.444 C 303.54 117.673 308.375 81.309 290.484 53.91 L 290.484 53.91 Z " fill="rgb(235,235,235)"/><path d=" M 271.589 11.83 L 250.604 29.22 L 250.603 29.22 C 249.662 30.001 249.208 31.224 249.413 32.429 C 249.618 33.634 250.45 34.639 251.597 35.064 L 277.15 44.543 C 278.296 44.969 279.583 44.75 280.524 43.97 C 281.466 43.19 281.92 41.967 281.715 40.761 L 277.147 13.891 C 276.949 12.683 276.114 11.675 274.963 11.256 C 274.579 11.113 274.172 11.039 273.761 11.038 C 272.967 11.04 272.198 11.32 271.589 11.83 Z " fill="rgb(85,85,85)"/><path d=" M 192.964 11.256 C 191.813 11.675 190.978 12.683 190.78 13.891 L 186.213 40.761 C 186.008 41.967 186.462 43.19 187.403 43.97 C 188.345 44.75 189.631 44.969 190.777 44.543 L 216.331 35.064 C 217.477 34.639 218.309 33.634 218.514 32.429 C 218.719 31.224 218.265 30.001 217.324 29.22 L 196.338 11.83 C 195.729 11.32 194.961 11.04 194.166 11.038 C 193.756 11.039 193.349 11.113 192.964 11.256 Z " fill="rgb(85,85,85)"/><circle vector-effect="non-scaling-stroke" cx="235.11702" cy="99.27819" r="9.227100000000007" fill="rgb(85,85,85)"/><ellipse vector-effect="non-scaling-stroke" cx="235.11702" cy="94.66464" rx="6.151399999999995" ry="2.30677" fill="rgb(63,61,86)"/><path d=" M 235.501 119.27 L 235.501 119.27 C 234.38 119.27 233.304 118.825 232.511 118.032 C 231.718 117.238 231.272 116.163 231.272 115.041 L 231.272 104.661 L 239.731 104.661 L 239.731 115.041 C 239.731 116.163 239.285 117.238 238.492 118.032 C 237.699 118.825 236.623 119.27 235.501 119.27 L 235.501 119.27 Z " fill="rgb(255,101,132)"/><path d=" M 234.604 0 C 235.047 0.92 235.478 1.849 235.883 2.798 C 240.655 13.927 242.264 26.157 240.534 38.142 C 239.668 36.886 238.758 35.577 237.833 34.254 C 239.815 22.752 238.7 10.929 234.604 0 L 234.604 0 Z " fill="rgb(235,235,235)"/><path d=" M 227.683 8.458 C 228.127 9.378 228.557 10.308 228.962 11.256 C 233.734 22.386 235.344 34.615 233.613 46.6 C 232.748 45.344 231.838 44.035 230.912 42.712 C 232.894 31.21 231.78 19.388 227.683 8.458 L 227.683 8.458 Z " fill="rgb(235,235,235)"/><path d=" M 206.347 39.947 L 207.322 27.549 L 208.297 15.151 C 208.404 13.789 209.23 12.587 210.464 11.998 C 211.697 11.41 213.151 11.524 214.277 12.298 L 224.527 19.342 L 232.011 24.485 C 232.98 23.351 234.395 22.699 235.886 22.699 C 237.377 22.699 238.792 23.351 239.761 24.485 L 247.245 19.342 L 257.495 12.298 C 258.621 11.524 260.075 11.41 261.308 11.998 C 262.542 12.587 263.368 13.789 263.475 15.151 L 264.45 27.549 L 265.425 39.947 C 265.532 41.31 264.904 42.626 263.777 43.4 C 262.651 44.174 261.197 44.288 259.964 43.7 L 248.739 38.345 L 239.517 33.945 C 238.558 34.916 237.251 35.463 235.886 35.463 C 234.521 35.463 233.214 34.916 232.255 33.945 L 223.033 38.345 L 211.808 43.7 C 210.575 44.288 209.121 44.174 207.994 43.4 C 206.868 42.626 206.24 41.31 206.347 39.947 Z " fill="rgb(7,232,89)"/><path d=" M 245.113 89.282 C 245.113 90.556 246.146 89.282 247.42 89.282 C 248.694 89.282 249.727 90.556 249.727 89.282 C 249.724 88.01 248.692 86.98 247.42 86.98 C 246.148 86.98 245.116 88.01 245.113 89.282 L 245.113 89.282 Z " fill="rgb(85,85,85)"/><path d=" M 225.121 89.282 C 225.121 90.556 224.088 89.282 222.814 89.282 C 221.54 89.282 220.507 90.556 220.507 89.282 C 220.51 88.01 221.542 86.98 222.814 86.98 C 224.086 86.98 225.118 88.01 225.121 89.282 Z " fill="rgb(85,85,85)"/><path d=" M 481.05 263.451 L 481.05 248.788 L 407.736 248.788 L 407.736 249.705 L 407.736 263.451 L 407.736 381.67 L 407.736 396.333 L 422.399 396.333 L 481.05 396.333 L 481.05 381.67 L 422.399 381.67 L 422.399 263.451 L 481.05 263.451 L 481.05 263.451 Z " fill="rgb(235,235,235)"/><path d=" M 516.791 248.788 L 516.791 396.333 L 590.105 396.333 L 590.105 248.788 L 516.791 248.788 Z  M 575.442 381.67 L 531.453 381.67 L 531.453 263.451 L 575.442 263.451 L 575.442 381.67 Z " fill="rgb(7,232,89)"/><path d=" M 313.344 381.67 L 313.344 249.705 L 298.681 249.705 L 298.681 381.67 L 298.681 396.333 L 313.344 396.333 L 371.995 396.333 L 371.995 381.67 L 313.344 381.67 L 313.344 381.67 Z " fill="rgb(7,232,89)"/><path d=" M 265.69 263.451 L 265.69 248.788 L 192.376 248.788 L 192.376 249.705 L 192.376 263.451 L 192.376 314.771 L 192.376 329.434 L 192.376 381.67 L 192.376 396.333 L 207.039 396.333 L 265.69 396.333 L 265.69 381.67 L 207.039 381.67 L 207.039 329.434 L 265.69 329.434 L 265.69 314.771 L 207.039 314.771 L 207.039 263.451 L 265.69 263.451 L 265.69 263.451 Z " fill="rgb(235,235,235)"/><path d=" M 839.372 263.451 L 839.372 248.788 L 766.058 248.788 L 766.058 249.705 L 766.058 263.451 L 766.058 314.771 L 766.058 329.434 L 766.058 381.67 L 766.058 396.333 L 780.721 396.333 L 839.372 396.333 L 839.372 381.67 L 780.721 381.67 L 780.721 329.434 L 839.372 329.434 L 839.372 314.771 L 780.721 314.771 L 780.721 263.451 L 839.372 263.451 L 839.372 263.451 Z " fill="rgb(7,232,89)"/><path d=" M 142.889 249.705 L 142.889 370.89 L 104.228 332.23 L 104.14 332.319 L 104.058 332.237 L 64.535 371.76 L 64.535 249.247 L 49.872 249.247 L 49.872 395.875 L 64.535 395.875 L 64.535 392.496 L 104.147 352.884 L 142.889 391.627 L 142.889 396.333 L 157.552 396.333 L 157.552 249.705 L 142.889 249.705 L 142.889 249.705 Z " fill="rgb(235,235,235)"/><path d=" M 717.488 249.705 L 717.488 253.083 L 677.876 292.695 L 639.133 253.953 L 639.133 249.247 L 624.47 249.247 L 624.47 395.875 L 639.133 395.875 L 639.133 274.689 L 677.794 313.35 L 677.883 313.261 L 677.964 313.342 L 717.488 273.819 L 717.488 396.333 L 732.15 396.333 L 732.15 249.705 L 717.488 249.705 L 717.488 249.705 Z " fill="rgb(235,235,235)"/><circle vector-effect="non-scaling-stroke" cx="335.07556" cy="150.37952" r="9" fill="rgb(7,232,89)"/><circle vector-effect="non-scaling-stroke" cx="113.07556" cy="250.37952" r="9" fill="rgb(7,232,89)"/><circle vector-effect="non-scaling-stroke" cx="291.07556" cy="450.37952" r="9" fill="rgb(7,232,89)"/><circle vector-effect="non-scaling-stroke" cx="517.07556" cy="177.37952" r="9" fill="rgb(7,232,89)"/><circle vector-effect="non-scaling-stroke" cx="782.07556" cy="442.37952" r="9" fill="rgb(7,232,89)"/><circle vector-effect="non-scaling-stroke" cx="791.07556" cy="206.37952" r="9" fill="rgb(7,232,89)"/><circle vector-effect="non-scaling-stroke" cx="677.07556" cy="368.37952" r="9" fill="rgb(7,232,89)"/></g></svg>