<?xml version="1.0" encoding="UTF-8" standalone="no"?><!-- Generator: Gravit.io --><svg xmlns="http://www.w3.org/2000/svg" xmlns:xlink="http://www.w3.org/1999/xlink" style="isolation:isolate" viewBox="0 0 622.529 459.731" width="622.529pt" height="459.731pt"><defs><clipPath id="_clipPath_AHRYXKKn7g0Wje9M29sgDBeUzML94dyI"><rect width="622.529" height="459.731"/></clipPath></defs><g clip-path="url(#_clipPath_AHRYXKKn7g0Wje9M29sgDBeUzML94dyI)"><g><path d=" M 265.381 311.746 C 265.381 311.746 348.054 301.825 376.99 286.117 C 376.99 286.117 620.876 262.969 620.876 311.746 C 620.876 360.523 373.683 382.018 373.683 382.018 L 243.886 374.577 L 265.381 311.746 Z " fill="rgb(251,190,190)"/><g opacity="0.1"><path d=" M 265.381 311.746 C 265.381 311.746 348.054 301.825 376.99 286.117 C 376.99 286.117 620.876 262.969 620.876 311.746 C 620.876 360.523 373.683 382.018 373.683 382.018 L 243.886 374.577 L 265.381 311.746 Z " fill="rgb(0,0,0)"/></g><path d=" M 289.356 302.652 L 271.995 353.082 L 0 356.389 L 0 281.983 C 0 281.983 104.168 258.008 186.841 309.266 C 186.841 309.266 284.396 297.691 289.356 302.652 Z " fill="rgb(7,232,89)"/><g opacity="0.1"><path d=" M 289.356 302.57 L 271.995 353.001 L 0 356.308 L 0 281.902 C 0 281.902 104.168 257.927 186.841 309.184 C 186.841 309.184 284.396 297.61 289.356 302.57 Z " fill="rgb(0,0,0)"/></g><path d=" M 600.329 281.57 C 600.329 284.388 594.01 286.48 593.389 289.198 C 592.773 291.894 596.527 295.993 595.339 298.568 C 594.111 301.201 592.66 303.723 591.003 306.109 C 589.447 308.337 584.639 308.012 582.668 310.102 C 580.738 311.999 578.694 313.777 576.546 315.425 C 574.455 317.164 571.621 317.529 569.243 319.131 C 566.981 320.653 567.255 326.238 564.753 327.625 C 562.363 328.95 558.704 327.884 556.111 329.075 C 553.622 330.218 552.309 334.352 549.648 335.363 C 547.082 336.338 543.906 335.918 541.193 336.763 C 538.567 337.58 535.63 337.448 532.878 338.136 C 530.207 338.804 528.166 342.809 525.387 343.349 C 522.679 343.875 519.505 342.472 516.705 342.87 C 513.971 343.259 510.791 339.799 507.978 340.061 C 505.225 340.317 502.63 341.919 499.811 342.049 C 497.046 342.175 494.313 343.393 491.492 343.393 C 488.672 343.393 485.762 346.039 482.998 345.912 C 480.178 345.782 477.626 341.772 474.873 341.516 C 472.06 341.254 468.704 345.443 465.97 345.053 C 463.17 344.655 460.952 340.555 458.244 340.029 C 455.464 339.489 451.873 342.419 449.201 341.751 C 446.449 341.063 444.816 336.293 442.19 335.475 C 439.477 334.631 436.114 335.775 433.548 334.8 C 430.887 333.789 427.645 333.951 425.156 332.808 C 422.563 331.617 420.701 328.799 418.311 327.474 C 415.809 326.087 414.656 322.649 412.395 321.126 C 410.016 319.524 406.392 319.729 404.3 317.989 C 402.092 316.152 397.954 316.057 396.091 314.081 C 394.12 311.991 393.322 308.482 391.766 306.253 C 390.127 303.906 393.344 298.944 392.199 296.463 C 391.012 293.889 386.047 292.843 385.431 290.147 C 384.796 287.332 384.47 284.456 384.459 281.57 C 384.459 278.753 388.705 276.599 389.326 273.881 C 389.942 271.185 386.817 267.313 388.005 264.738 C 389.15 262.257 389.003 258.444 390.643 256.096 C 392.199 253.868 396.083 252.994 398.054 250.905 C 399.918 248.929 403.253 248.378 405.462 246.541 C 407.553 244.802 407.287 239.556 409.665 237.955 C 411.927 236.432 415.084 235.738 417.586 234.351 C 419.976 233.026 423.359 233.249 425.952 232.059 C 428.441 230.916 432.339 233.168 435 232.157 C 437.566 231.182 439.647 229.051 442.36 228.206 C 444.986 227.389 446.22 221.156 448.971 220.467 C 451.643 219.799 454.931 220.908 457.71 220.368 C 460.418 219.842 464.061 224.76 466.862 224.362 C 469.596 223.973 471.641 217.407 474.454 217.146 C 477.207 216.889 480.311 220.29 483.131 220.16 C 485.896 220.033 488.672 222.026 491.492 222.026 C 494.312 222.026 497.122 219.291 499.886 219.418 C 502.705 219.547 505.192 223.161 507.945 223.417 C 510.758 223.679 514.211 218.183 516.946 218.572 C 519.746 218.97 521.909 223.219 524.617 223.745 C 527.397 224.285 530.879 221.648 533.552 222.316 C 536.303 223.004 537.959 227.52 540.585 228.338 C 543.298 229.182 544.969 232.368 547.535 233.343 C 550.197 234.354 555.14 229.623 557.629 230.766 C 560.222 231.957 562.462 234.018 564.852 235.343 C 567.354 236.73 571.331 236.033 573.592 237.555 C 575.971 239.157 576.556 243.456 578.648 245.195 C 580.856 247.032 584.498 247.585 586.362 249.561 C 588.333 251.651 588.607 255.396 590.163 257.624 C 591.802 259.971 591.751 263.223 592.895 265.704 C 594.082 268.278 597.253 270.225 597.869 272.921 C 598.489 275.638 600.329 278.753 600.329 281.57 Z " fill="rgb(85,85,85)"/><path d=" M 302.584 333.241 C 302.584 333.241 396.005 285.29 456.356 303.479 C 516.707 321.667 601.034 290.251 610.955 300.998 C 620.876 311.746 634.93 427.488 515.881 434.102 C 396.831 440.716 295.143 414.261 295.143 414.261 L 302.584 333.241 Z " fill="rgb(251,190,190)"/><path d=" M 280.584 328.134 C 280.584 328.134 317.465 325.8 315.812 339.028 C 314.158 352.256 312.505 454.77 302.584 457.251 C 292.663 459.731 214.124 459.731 181.881 459.731 L 0 459.731 L 0 301.236 C 0 301.236 128.97 293.558 193.455 325.8 C 193.455 325.8 270.984 324.681 280.584 328.134 Z " fill="rgb(7,232,89)"/><mask id="_mask_tTjIATzwDw25hsROK1vdXS8lLkwb5SIT" x="-200%" y="-200%" width="400%" height="400%"><rect x="-200%" y="-200%" width="400%" height="400%" style="fill:white;"/><path d=" M 453.364 80.226 C 446.176 80.632 439.835 85.065 436.986 91.677 C 432.891 101.576 438.164 113.204 446.08 120.422 C 453.995 127.641 464.163 131.767 473.402 137.19 C 485.811 144.475 496.961 154.587 503.17 167.568 C 509.379 180.548 510.039 196.627 502.741 209.028 C 495.967 220.538 483.649 227.427 471.902 233.78" fill="black" stroke="none"/></mask><path d=" M 453.364 80.226 C 446.176 80.632 439.835 85.065 436.986 91.677 C 432.891 101.576 438.164 113.204 446.08 120.422 C 453.995 127.641 464.163 131.767 473.402 137.19 C 485.811 144.475 496.961 154.587 503.17 167.568 C 509.379 180.548 510.039 196.627 502.741 209.028 C 495.967 220.538 483.649 227.427 471.902 233.78" fill="none"/><path d=" M 453.364 80.226 C 446.176 80.632 439.835 85.065 436.986 91.677 C 432.891 101.576 438.164 113.204 446.08 120.422 C 453.995 127.641 464.163 131.767 473.402 137.19 C 485.811 144.475 496.961 154.587 503.17 167.568 C 509.379 180.548 510.039 196.627 502.741 209.028 C 495.967 220.538 483.649 227.427 471.902 233.78" fill="none" mask="url(#_mask_tTjIATzwDw25hsROK1vdXS8lLkwb5SIT)" vector-effect="non-scaling-stroke" stroke-width="1.405" stroke="rgb(85,85,85)" stroke-linejoin="miter" stroke-linecap="butt" stroke-miterlimit="10"/><mask id="_mask_89sa4gZFIrKkzyrZ4OW8R73cLxdDu1TC" x="-200%" y="-200%" width="400%" height="400%"><rect x="-200%" y="-200%" width="400%" height="400%" style="fill:white;"/><path d=" M 486.433 19.874 C 479.245 20.28 472.904 24.714 470.056 31.325 C 465.96 41.224 471.233 52.852 479.149 60.071 C 487.064 67.289 497.232 71.416 506.471 76.839 C 518.88 84.124 530.03 94.236 536.239 107.216 C 542.448 120.197 543.108 136.276 535.81 148.677 C 529.036 160.187 516.719 167.076 504.971 173.429" fill="black" stroke="none"/></mask><path d=" M 486.433 19.874 C 479.245 20.28 472.904 24.714 470.056 31.325 C 465.96 41.224 471.233 52.852 479.149 60.071 C 487.064 67.289 497.232 71.416 506.471 76.839 C 518.88 84.124 530.03 94.236 536.239 107.216 C 542.448 120.197 543.108 136.276 535.81 148.677 C 529.036 160.187 516.719 167.076 504.971 173.429" fill="none"/><path d=" M 486.433 19.874 C 479.245 20.28 472.904 24.714 470.056 31.325 C 465.96 41.224 471.233 52.852 479.149 60.071 C 487.064 67.289 497.232 71.416 506.471 76.839 C 518.88 84.124 530.03 94.236 536.239 107.216 C 542.448 120.197 543.108 136.276 535.81 148.677 C 529.036 160.187 516.719 167.076 504.971 173.429" fill="none" mask="url(#_mask_89sa4gZFIrKkzyrZ4OW8R73cLxdDu1TC)" vector-effect="non-scaling-stroke" stroke-width="1.405" stroke="rgb(85,85,85)" stroke-linejoin="miter" stroke-linecap="butt" stroke-miterlimit="10"/><mask id="_mask_jTLRe0qMFAwDekbBu4PM8Py3PYnFHfuC" x="-200%" y="-200%" width="400%" height="400%"><rect x="-200%" y="-200%" width="400%" height="400%" style="fill:white;"/><path d=" M 595.162 33.755 C 589.23 29.676 581.502 29.299 575.202 32.783 C 565.904 38.104 562.955 50.526 564.795 61.08 C 566.635 71.633 572.149 81.121 576.134 91.065 C 581.487 104.421 584.113 119.243 581.076 133.308 C 578.039 147.373 568.718 160.491 555.356 165.829 C 542.953 170.783 528.997 168.69 515.818 166.522" fill="black" stroke="none"/></mask><path d=" M 595.162 33.755 C 589.23 29.676 581.502 29.299 575.202 32.783 C 565.904 38.104 562.955 50.526 564.795 61.08 C 566.635 71.633 572.149 81.121 576.134 91.065 C 581.487 104.421 584.113 119.243 581.076 133.308 C 578.039 147.373 568.718 160.491 555.356 165.829 C 542.953 170.783 528.997 168.69 515.818 166.522" fill="none"/><path d=" M 595.162 33.755 C 589.23 29.676 581.502 29.299 575.202 32.783 C 565.904 38.104 562.955 50.526 564.795 61.08 C 566.635 71.633 572.149 81.121 576.134 91.065 C 581.487 104.421 584.113 119.243 581.076 133.308 C 578.039 147.373 568.718 160.491 555.356 165.829 C 542.953 170.783 528.997 168.69 515.818 166.522" fill="none" mask="url(#_mask_jTLRe0qMFAwDekbBu4PM8Py3PYnFHfuC)" vector-effect="non-scaling-stroke" stroke-width="1.405" stroke="rgb(85,85,85)" stroke-linejoin="miter" stroke-linecap="butt" stroke-miterlimit="10"/><ellipse vector-effect="non-scaling-stroke" cx="499.3461222415803" cy="148.87961971709498" rx="19.841565165412646" ry="9.637335064540707" fill="rgb(87,184,148)"/><ellipse vector-effect="non-scaling-stroke" cx="496.8659265959038" cy="147.22615829540686" rx="19.841565165412646" ry="9.637335064540707" fill="none" stroke-width="0.703" stroke="rgb(85,85,85)" stroke-linejoin="miter" stroke-linecap="butt" stroke-miterlimit="10"/><ellipse vector-effect="non-scaling-stroke" cx="542.3361894683594" cy="140.61230558236562" rx="19.84156516541259" ry="9.637335064540707" fill="rgb(87,184,148)"/><ellipse vector-effect="non-scaling-stroke" cx="539.8559938226829" cy="138.9588371343887" rx="19.84156516541259" ry="9.637335064540707" fill="none" stroke-width="0.703" stroke="rgb(85,85,85)" stroke-linejoin="miter" stroke-linecap="butt" stroke-miterlimit="10"/><ellipse vector-effect="non-scaling-stroke" cx="548.9500421814007" cy="176.98851306981467" rx="19.84156516541259" ry="9.637335064540707" fill="rgb(87,184,148)"/><ellipse vector-effect="non-scaling-stroke" cx="546.469846535724" cy="175.3350446218377" rx="19.84156516541259" ry="9.637335064540707" fill="none" stroke-width="0.703" stroke="rgb(63,61,86)" stroke-linejoin="miter" stroke-linecap="butt" stroke-miterlimit="10"/><ellipse vector-effect="non-scaling-stroke" cx="544.8163851140359" cy="86.04798732490322" rx="19.84156516541259" ry="9.637335064540721" fill="rgb(87,184,148)"/><ellipse vector-effect="non-scaling-stroke" cx="542.3361894683594" cy="84.39452590321511" rx="19.84156516541259" ry="9.637335064540707" fill="none" stroke-width="0.703" stroke="rgb(85,85,85)" stroke-linejoin="miter" stroke-linecap="butt" stroke-miterlimit="10"/><ellipse vector-effect="non-scaling-stroke" cx="495.21246517421565" cy="80.26086883585042" rx="19.841565165412646" ry="9.637335064540721" fill="rgb(87,184,148)"/><ellipse vector-effect="non-scaling-stroke" cx="492.732269528539" cy="78.60740038787348" rx="19.841565165412646" ry="9.637335064540721" fill="none" stroke-width="0.703" stroke="rgb(85,85,85)" stroke-linejoin="miter" stroke-linecap="butt" stroke-miterlimit="10"/><ellipse vector-effect="non-scaling-stroke" cx="517.5342259853048" cy="59.592569446449325" rx="19.841565165412618" ry="9.637335064540714" fill="rgb(87,184,148)"/><ellipse vector-effect="non-scaling-stroke" cx="515.0540303396281" cy="57.93910099847237" rx="19.841565165412618" ry="9.637335064540718" fill="none" stroke-width="0.703" stroke="rgb(85,85,85)" stroke-linejoin="miter" stroke-linecap="butt" stroke-miterlimit="10"/><ellipse vector-effect="non-scaling-stroke" cx="566.3114187274255" cy="63.726226513814005" rx="19.84156516541259" ry="9.637335064540714" fill="rgb(87,184,148)"/><ellipse vector-effect="non-scaling-stroke" cx="563.8312230817489" cy="62.0727650921259" rx="19.84156516541259" ry="9.637335064540714" fill="none" stroke-width="0.703" stroke="rgb(85,85,85)" stroke-linejoin="miter" stroke-linecap="butt" stroke-miterlimit="10"/><ellipse vector-effect="non-scaling-stroke" cx="602.6876262148746" cy="91.0083856425452" rx="19.84156516541259" ry="9.637335064540721" fill="rgb(87,184,148)"/><ellipse vector-effect="non-scaling-stroke" cx="600.2074305691981" cy="89.35491719456826" rx="19.84156516541259" ry="9.637335064540707" fill="none" stroke-width="0.703" stroke="rgb(85,85,85)" stroke-linejoin="miter" stroke-linecap="butt" stroke-miterlimit="10"/><ellipse vector-effect="non-scaling-stroke" cx="474.5441657848145" cy="43.057927124412906" rx="19.841565165412646" ry="9.637335064540714" fill="rgb(87,184,148)"/><ellipse vector-effect="non-scaling-stroke" cx="472.06397013913795" cy="41.4044657027248" rx="19.841565165412646" ry="9.637335064540714" fill="none" stroke-width="0.703" stroke="rgb(85,85,85)" stroke-linejoin="miter" stroke-linecap="butt" stroke-miterlimit="10"/><ellipse vector-effect="non-scaling-stroke" cx="486.9451440131973" cy="11.642110928317017" rx="19.841565165412646" ry="9.637335064540714" fill="rgb(87,184,148)"/><ellipse vector-effect="non-scaling-stroke" cx="484.4649483675208" cy="9.988649506628912" rx="19.841565165412646" ry="9.637335064540714" fill="none" stroke-width="0.703" stroke="rgb(85,85,85)" stroke-linejoin="miter" stroke-linecap="butt" stroke-miterlimit="10"/><ellipse vector-effect="non-scaling-stroke" cx="601.8608919908861" cy="34.7906059633947" rx="19.84156516541259" ry="9.637335064540714" fill="rgb(87,184,148)"/><ellipse vector-effect="non-scaling-stroke" cx="599.3806963452096" cy="33.13714454170659" rx="19.84156516541259" ry="9.637335064540714" fill="none" stroke-width="0.703" stroke="rgb(85,85,85)" stroke-linejoin="miter" stroke-linecap="butt" stroke-miterlimit="10"/><ellipse vector-effect="non-scaling-stroke" cx="419.1531203296525" cy="110.84995080795785" rx="19.841565165412646" ry="9.637335064540721" fill="rgb(87,184,148)"/><ellipse vector-effect="non-scaling-stroke" cx="416.67292468397585" cy="109.19648938626975" rx="19.841565165412646" ry="9.637335064540707" fill="none" stroke-width="0.703" stroke="rgb(85,85,85)" stroke-linejoin="miter" stroke-linecap="butt" stroke-miterlimit="10"/><ellipse vector-effect="non-scaling-stroke" cx="487.77187823718583" cy="105.8895595166047" rx="19.841565165412646" ry="9.637335064540721" fill="rgb(87,184,148)"/><ellipse vector-effect="non-scaling-stroke" cx="485.2916825915093" cy="104.2360980949166" rx="19.841565165412646" ry="9.637335064540707" fill="none" stroke-width="0.703" stroke="rgb(85,85,85)" stroke-linejoin="miter" stroke-linecap="butt" stroke-miterlimit="10"/><ellipse vector-effect="non-scaling-stroke" cx="577.8856627318198" cy="113.33014645363443" rx="19.84156516541259" ry="9.637335064540707" fill="rgb(87,184,148)"/><ellipse vector-effect="non-scaling-stroke" cx="575.4054670861433" cy="111.67668503194632" rx="19.84156516541259" ry="9.637335064540721" fill="none" stroke-width="0.703" stroke="rgb(85,85,85)" stroke-linejoin="miter" stroke-linecap="butt" stroke-miterlimit="10"/><ellipse vector-effect="non-scaling-stroke" cx="529.9352112399765" cy="116.63707632329945" rx="19.841565165412618" ry="9.637335064540707" fill="rgb(87,184,148)"/><ellipse vector-effect="non-scaling-stroke" cx="527.4550155943" cy="114.98360787532253" rx="19.841565165412618" ry="9.637335064540721" fill="none" stroke-width="0.703" stroke="rgb(85,85,85)" stroke-linejoin="miter" stroke-linecap="butt" stroke-miterlimit="10"/><ellipse vector-effect="non-scaling-stroke" cx="533.2421340833528" cy="33.96387173940622" rx="19.84156516541259" ry="9.637335064540714" fill="rgb(87,184,148)"/><ellipse vector-effect="non-scaling-stroke" cx="530.761938437676" cy="32.310410317718116" rx="19.841565165412618" ry="9.637335064540714" fill="none" stroke-width="0.703" stroke="rgb(85,85,85)" stroke-linejoin="miter" stroke-linecap="butt" stroke-miterlimit="10"/><ellipse vector-effect="non-scaling-stroke" cx="448.0887408800717" cy="85.22126012720358" rx="19.841565165412646" ry="9.637335064540707" fill="rgb(87,184,148)"/><ellipse vector-effect="non-scaling-stroke" cx="445.6085452343952" cy="83.56779167922663" rx="19.841565165412646" ry="9.637335064540721" fill="none" stroke-width="0.703" stroke="rgb(85,85,85)" stroke-linejoin="miter" stroke-linecap="butt" stroke-miterlimit="10"/><ellipse vector-effect="non-scaling-stroke" cx="459.66299191075507" cy="122.42420183864111" rx="19.841565165412646" ry="9.637335064540721" fill="rgb(87,184,148)"/><ellipse vector-effect="non-scaling-stroke" cx="457.1827892387896" cy="120.77073339066413" rx="19.841565165412646" ry="9.637335064540707" fill="none" stroke-width="0.703" stroke="rgb(85,85,85)" stroke-linejoin="miter" stroke-linecap="butt" stroke-miterlimit="10"/><g style="opacity:0.3;"><g opacity="0.3"><path d=" M 451.124 195.106 C 448.955 193.894 449.466 188.844 452.265 183.836 C 455.064 178.828 459.097 175.746 461.266 176.958 C 463.435 178.17 462.923 183.22 460.125 188.228 C 457.326 193.236 453.292 196.318 451.124 195.106 Z " fill="rgb(87,184,148)"/></g><g opacity="0.3"><path d=" M 449.816 195.863 C 447.647 194.651 448.158 189.601 450.957 184.593 C 453.756 179.585 457.789 176.503 459.958 177.716 C 462.127 178.928 461.615 183.978 458.816 188.986 C 456.017 193.994 451.984 197.075 449.816 195.863 Z " fill="none" vector-effect="non-scaling-stroke" stroke-width="0.703" stroke="rgb(63,61,86)" stroke-linejoin="miter" stroke-linecap="butt" stroke-miterlimit="10"/></g></g><g style="opacity:0.3;"><g opacity="0.3"><path d=" M 552.8 208.674 C 548.525 204.848 546.399 200.239 548.056 198.388 C 549.713 196.536 554.529 198.139 558.804 201.965 C 563.079 205.791 565.205 210.401 563.548 212.252 C 561.891 214.103 557.075 212.5 552.8 208.674 Z " fill="rgb(87,184,148)"/></g><g opacity="0.3"><path d=" M 552.347 207.232 C 548.072 203.406 545.946 198.797 547.603 196.945 C 549.26 195.094 554.076 196.697 558.351 200.523 C 562.626 204.349 564.752 208.959 563.095 210.81 C 561.438 212.661 556.622 211.058 552.347 207.232 Z " fill="none" vector-effect="non-scaling-stroke" stroke-width="0.703" stroke="rgb(63,61,86)" stroke-linejoin="miter" stroke-linecap="butt" stroke-miterlimit="10"/></g></g><g style="opacity:0.3;"><g opacity="0.3"><path d=" M 460.206 156.59 C 455.931 152.764 453.805 148.155 455.462 146.303 C 457.119 144.452 461.935 146.055 466.21 149.881 C 470.485 153.707 472.611 158.317 470.954 160.168 C 469.297 162.019 464.481 160.416 460.206 156.59 Z " fill="rgb(87,184,148)"/></g><g opacity="0.3"><path d=" M 459.753 155.148 C 455.478 151.322 453.352 146.713 455.009 144.861 C 456.666 143.01 461.482 144.613 465.757 148.439 C 470.032 152.265 472.158 156.875 470.501 158.726 C 468.844 160.577 464.028 158.974 459.753 155.148 Z " fill="none" vector-effect="non-scaling-stroke" stroke-width="0.703" stroke="rgb(63,61,86)" stroke-linejoin="miter" stroke-linecap="butt" stroke-miterlimit="10"/></g></g></g></g></svg>