<?xml version="1.0" encoding="UTF-8" standalone="no"?><!-- Generator: Gravit.io --><svg xmlns="http://www.w3.org/2000/svg" xmlns:xlink="http://www.w3.org/1999/xlink" style="isolation:isolate" viewBox="0 0 691.244 459.38" width="691.244pt" height="459.38pt"><defs><clipPath id="_clipPath_wePzEPUEJPkSn6mK9egJBFmKDHEHhhMh"><rect width="691.244" height="459.38"/></clipPath></defs><g clip-path="url(#_clipPath_wePzEPUEJPkSn6mK9egJBFmKDHEHhhMh)"><g><path d=" M 247.949 264.377 C 271.638 222.705 316.826 190.709 364.66 193.791 C 329.376 232.161 308.801 281.775 306.576 333.854 C 305.79 353.942 307.008 376.367 293.67 391.408 C 285.371 400.768 272.686 405.301 260.214 406.251 C 247.741 407.202 235.271 404.949 222.965 402.705 L 219.98 403.621 C 218.843 355.7 224.26 306.049 247.949 264.377 Z " fill="rgb(149,149,149)"/><path d=" M 364.731 194.794 C 329.358 211.823 299.196 240.262 280.681 274.947 C 276.678 282.445 273.27 290.401 271.783 298.812 C 270.296 307.227 271.335 315.237 274.209 323.229 C 276.836 330.536 280.37 337.706 281.176 345.524 C 282.025 353.765 278.993 361.47 273.535 367.585 C 266.857 375.067 257.889 379.704 248.961 383.933 C 239.049 388.629 228.678 393.349 221.657 402.114 C 220.807 403.176 219.209 401.793 220.058 400.733 C 232.273 385.485 253.182 382.619 267.682 370.336 C 274.448 364.604 279.527 356.799 279.206 347.653 C 278.926 339.656 275.288 332.259 272.564 324.884 C 269.703 317.14 268.277 309.354 269.302 301.097 C 270.352 292.652 273.456 284.547 277.25 276.978 C 285.806 259.91 297.515 244.241 310.928 230.695 C 326.344 215.125 344.309 202.307 364.047 192.795 C 365.269 192.207 365.945 194.21 364.731 194.794 L 364.731 194.794 Z " fill="rgb(255,255,255)"/><path d=" M 286.104 263.355 C 274.904 255.166 271.286 240.068 277.558 227.692 C 278.177 226.481 280.087 227.386 279.467 228.598 C 273.604 240.116 277.006 254.189 287.485 261.756 C 288.586 262.553 287.199 264.148 286.104 263.355 L 286.104 263.355 Z " fill="rgb(255,255,255)"/><path d=" M 272.388 319.7 C 285.977 317.715 298.317 310.68 306.95 300 C 307.804 298.942 309.402 300.323 308.549 301.381 C 299.545 312.478 286.688 319.772 272.543 321.807 C 271.195 322 271.047 319.892 272.388 319.7 L 272.388 319.7 Z " fill="rgb(255,255,255)"/><path d=" M 327.387 217.725 C 331 221.729 336.384 223.649 341.716 222.833 C 343.061 222.623 343.207 224.731 341.87 224.94 C 335.978 225.814 330.037 223.71 326.007 219.324 C 325.583 218.934 325.535 218.282 325.897 217.834 C 326.28 217.395 326.945 217.347 327.387 217.725 Z " fill="rgb(255,255,255)"/><path d=" M 459.836 325.25 C 459 325.405 458.164 325.56 457.32 325.731 C 446.088 327.873 435.049 330.925 424.311 334.855 C 423.476 335.146 422.634 335.453 421.809 335.767 C 396.04 345.512 372.304 359.957 351.808 378.367 C 343.659 385.7 336.08 393.642 329.136 402.125 C 319.547 413.841 310.082 427.308 297.551 434.947 C 296.252 435.758 294.905 436.489 293.516 437.134 L 221.329 407.192 C 221.199 407.041 221.062 406.907 220.931 406.756 L 217.994 405.693 C 218.322 405.23 218.672 404.757 218.999 404.295 C 219.188 404.026 219.393 403.763 219.582 403.494 C 219.713 403.317 219.845 403.14 219.953 402.973 C 219.996 402.913 220.041 402.855 220.077 402.812 C 220.185 402.644 220.304 402.5 220.405 402.349 Q 223.326 398.378 226.313 394.434 C 226.32 394.418 226.32 394.418 226.343 394.408 C 241.567 374.412 258.595 355.512 277.949 339.797 C 278.532 339.325 279.12 338.835 279.736 338.376 C 288.499 331.341 297.823 325.034 307.614 319.518 C 312.985 316.515 318.505 313.785 324.152 311.34 C 338.755 305.051 354.257 301.097 370.088 299.625 C 401.649 296.694 433.796 303.889 458.002 323.717 C 458.621 324.224 459.224 324.725 459.836 325.25 Z " fill="rgb(149,149,149)"/><path d=" M 459.294 326.098 C 420.798 318.398 379.593 322.946 343.927 339.492 C 336.216 343.069 328.705 347.369 322.454 353.189 C 316.2 359.013 312.207 366.034 309.69 374.146 C 307.389 381.562 305.894 389.414 301.83 396.141 C 297.547 403.232 290.487 407.559 282.447 409.156 C 272.61 411.109 262.658 409.412 252.983 407.414 C 242.242 405.195 231.119 402.72 220.237 405.491 C 218.918 405.827 218.475 403.761 219.791 403.426 C 238.725 398.605 257.145 408.906 276.118 407.828 C 284.97 407.325 293.725 404.151 298.976 396.656 C 303.567 390.102 305.115 382.006 307.38 374.477 C 309.759 366.571 313.308 359.495 319.098 353.521 C 325.02 347.409 332.379 342.807 339.965 339.048 C 357.072 330.572 375.855 325.11 394.72 322.37 C 416.403 319.22 438.465 319.801 459.951 324.09 C 461.281 324.356 460.615 326.363 459.294 326.099 L 459.294 326.098 Z " fill="rgb(255,255,255)"/><path d=" M 355.236 333.502 C 351.225 320.22 357.426 305.987 369.885 299.881 C 371.107 299.287 372.088 301.159 370.863 301.754 C 359.247 307.42 353.491 320.706 357.302 333.056 C 357.701 334.355 355.633 334.794 355.236 333.502 Z " fill="rgb(255,255,255)"/><path d=" M 310.362 370.232 C 322.406 376.828 336.495 378.641 349.817 375.311 C 351.137 374.98 351.581 377.046 350.263 377.376 C 336.393 380.816 321.736 378.899 309.217 372.007 C 308.024 371.35 309.175 369.578 310.362 370.232 L 310.362 370.232 Z " fill="rgb(255,255,255)"/><path d=" M 415.671 321.924 C 416.145 327.296 419.288 332.071 424.036 334.629 C 425.236 335.271 424.084 337.042 422.891 336.404 C 417.661 333.555 414.183 328.298 413.606 322.369 C 413.503 321.803 413.857 321.253 414.416 321.114 C 414.985 320.994 415.545 321.355 415.671 321.924 L 415.671 321.924 Z " fill="rgb(255,255,255)"/><path d=" M 322.325 374.648 C 312.216 325.767 299.579 309.469 299.579 309.469 L 294.751 305.726 L 288.946 301.216 L 288.974 300.636 L 287.597 300.168 L 287.273 299.917 L 286.743 299.51 L 286.658 299.602 L 286.478 299.788 L 260.207 290.858 L 226.877 279.537 L 211.444 259.476 C 206.348 252.853 198.445 248.998 190.089 249.06 L 140.799 249.425 C 134.134 249.474 127.729 252.015 122.843 256.547 L 90.445 286.598 L 39.963 310.708 L 39.878 310.623 L 39.348 311.001 L 31.548 314.731 L 31.87 316.406 L 27.042 319.89 C 27.042 319.89 14.406 335.054 4.296 380.538 C 1.724 392.111 0.458 416.937 0.001 447.529 C -0.045 450.655 1.164 453.669 3.358 455.897 C 5.552 458.124 8.547 459.379 11.674 459.38 L 281.306 459.38 L 281.306 459.379 L 314.96 459.379 C 318.084 459.378 321.077 458.125 323.271 455.9 C 325.464 453.676 326.675 450.665 326.632 447.541 C 326.186 414.252 324.921 387.199 322.325 374.648 Z " fill="rgb(85,85,85)"/><path d=" M 356.921 42.629 C 335.076 42.629 317.367 60.338 317.367 82.182 C 317.367 104.027 335.076 121.736 356.921 121.736 L 651.69 121.736 C 673.535 121.736 691.244 104.027 691.244 82.182 C 691.244 60.338 673.535 42.629 651.69 42.629 L 356.921 42.629 Z " fill="rgb(85,85,85)"/><path d=" M 356.921 50.634 C 339.497 50.634 325.372 64.759 325.372 82.182 C 325.372 99.606 339.497 113.731 356.921 113.731 L 651.69 113.731 C 669.114 113.731 683.239 99.606 683.239 82.182 C 683.239 64.759 669.114 50.634 651.69 50.634 L 356.921 50.634 Z " fill="rgb(255,255,255)"/><circle vector-effect="non-scaling-stroke" cx="173.18439536262372" cy="165.96793355099607" r="64.5748170723491" fill="rgb(158,97,106)"/><path d=" M 156.665 227.381 Q 156.251 226.47 155.84 225.552 C 155.945 225.556 156.05 225.571 156.156 225.574 L 156.665 227.381 Z " fill="rgb(47,46,65)"/><path d=" M 106.814 104.33 C 110.08 101.724 113.897 99.327 118.073 99.462 C 122.248 99.596 126.483 103.368 125.618 107.455 C 141.449 79.424 175.117 66.799 205.476 77.51 C 215.855 81.172 226.032 88.497 228.416 99.241 C 229.028 101.999 229.16 105.023 230.882 107.263 C 233.053 110.086 237.207 110.725 240.628 109.732 Q 240.679 109.717 240.73 109.702 C 241.913 109.298 243.222 109.656 244.034 110.605 C 244.847 111.554 244.998 112.903 244.417 114.009 L 241.48 119.485 C 245.182 120.31 249.028 120.229 252.692 119.247 C 253.938 118.92 255.256 119.412 255.983 120.477 C 256.71 121.542 256.688 122.949 255.929 123.991 C 246.246 137.285 230.069 145.869 213.561 145.768 C 201.828 145.697 189.974 141.653 178.555 144.351 C 169.608 146.465 162.098 152.514 158.126 160.805 C 154.153 169.096 154.145 178.739 158.104 187.037 C 154.596 183.2 147.815 184.108 144.226 187.87 C 140.638 191.632 139.709 197.247 140.071 202.433 C 140.624 210.366 143.732 217.84 147.008 225.115 C 119.539 224.25 93.557 204.981 84.812 178.918 C 76.03 152.747 85.233 121.545 106.814 104.33 Z " fill="rgb(47,46,65)"/><g opacity="0.2"><path d=" M 63.558 359.89 L 81.67 458.433 L 92.538 459.379 L 63.558 359.89 L 63.558 359.89 Z " fill="rgb(0,0,0)"/></g><g opacity="0.2"><path d=" M 263.063 352.459 L 244.951 458.362 L 234.084 459.379 L 263.063 352.459 L 263.063 352.459 Z " fill="rgb(0,0,0)"/></g><path d=" M 122.262 71.165 C 118.789 72.615 115.165 71.026 113.646 67.387 C 112.103 63.692 113.544 59.941 117.072 58.468 C 120.601 56.994 124.16 58.587 125.728 62.342 C 127.272 66.04 125.847 69.668 122.262 71.165 Z  M 115.61 51.195 L 112.848 52.348 C 111.418 52.938 109.775 52.335 109.065 50.96 L 108.929 50.693 C 105.958 45.335 105.617 38.823 107.923 31.348 C 110.059 24.643 110.946 19.927 109.162 15.655 C 107.099 10.715 102.695 9.168 97.078 11.409 C 94.9 12.319 94.207 12.304 92.492 14.005 C 91.739 14.761 90.711 15.179 89.643 15.163 C 88.611 15.151 87.628 14.72 86.92 13.969 C 85.519 12.483 85.507 10.166 86.893 8.666 C 89.775 5.65 93.25 3.264 97.1 1.658 C 109.168 -3.381 115.242 4.058 118.022 10.716 C 120.742 17.228 119.212 23.27 116.754 31.094 C 114.695 37.596 114.815 42.414 117.154 47.205 C 117.496 47.937 117.524 48.776 117.232 49.529 C 116.941 50.282 116.355 50.883 115.61 51.195 L 115.61 51.195 Z " fill="rgb(7,232,89)"/><path d=" M 422.031 101.047 L 363.383 101.047 C 362.876 101.05 362.406 100.782 362.152 100.343 C 361.897 99.905 361.897 99.364 362.152 98.925 C 362.406 98.487 362.876 98.218 363.383 98.222 L 422.031 98.222 C 422.808 98.227 423.434 98.858 423.434 99.634 C 423.434 100.411 422.808 101.042 422.031 101.047 L 422.031 101.047 Z " fill="rgb(7,232,89)"/><path d=" M 496.43 101.518 L 437.782 101.518 C 437.275 101.521 436.805 101.253 436.55 100.814 C 436.296 100.376 436.296 99.834 436.55 99.396 C 436.805 98.957 437.275 98.689 437.782 98.692 L 496.43 98.692 C 496.937 98.689 497.407 98.957 497.661 99.396 C 497.916 99.834 497.916 100.376 497.661 100.814 C 497.407 101.253 496.937 101.521 496.43 101.518 L 496.43 101.518 Z " fill="rgb(7,232,89)"/><path d=" M 570.829 101.989 L 512.18 101.989 C 511.404 101.983 510.777 101.352 510.777 100.576 C 510.777 99.799 511.404 99.169 512.18 99.163 L 570.829 99.163 C 571.336 99.16 571.805 99.428 572.06 99.867 C 572.314 100.305 572.314 100.847 572.06 101.285 C 571.805 101.724 571.336 101.992 570.829 101.989 L 570.829 101.989 Z " fill="rgb(7,232,89)"/><path d=" M 645.227 102.459 L 586.579 102.459 C 585.803 102.454 585.176 101.823 585.176 101.047 C 585.176 100.27 585.803 99.639 586.579 99.634 L 645.227 99.634 C 646.004 99.639 646.63 100.27 646.63 101.047 C 646.63 101.823 646.004 102.454 645.227 102.459 L 645.227 102.459 Z " fill="rgb(7,232,89)"/><circle vector-effect="non-scaling-stroke" cx="392.57816409056636" cy="77.14599855570793" r="10.900197136274073" fill="rgb(7,232,89)"/><circle vector-effect="non-scaling-stroke" cx="467.4261844263149" cy="77.14599855570793" r="10.900197136274073" fill="rgb(7,232,89)"/><circle vector-effect="non-scaling-stroke" cx="542.2742047620633" cy="77.14599855570793" r="10.900197136274073" fill="rgb(7,232,89)"/><circle vector-effect="non-scaling-stroke" cx="617.1222250978118" cy="77.14599855570793" r="10.900197136274073" fill="rgb(7,232,89)"/></g></g></svg>