<?xml version="1.0" encoding="UTF-8" standalone="no"?><!-- Generator: Gravit.io --><svg xmlns="http://www.w3.org/2000/svg" xmlns:xlink="http://www.w3.org/1999/xlink" style="isolation:isolate" viewBox="0 0 597.226 459.38" width="597.226pt" height="459.38pt"><defs><clipPath id="_clipPath_k5Ciw8ZgFO0D6vyh7ZXYoFO4dLxqBr9x"><rect width="597.226" height="459.38"/></clipPath></defs><g clip-path="url(#_clipPath_k5Ciw8ZgFO0D6vyh7ZXYoFO4dLxqBr9x)"><g><path d=" M 310.5 318.109 C 308.034 317.685 305.881 316.191 304.622 314.028 C 303.363 311.865 303.127 309.255 303.977 306.901 L 266.861 242.707 L 284.405 237.186 L 315.404 301.949 C 319.351 303.678 321.381 308.084 320.13 312.207 C 318.879 316.33 314.742 318.865 310.5 318.109 L 310.5 318.109 Z " fill="rgb(255,184,184)"/><path d=" M 268.168 253.11 C 267.086 252.909 266.16 252.214 265.666 251.23 L 255.873 231.921 C 255.103 230.402 255.523 228.55 256.873 227.511 L 267.355 219.449 C 268.735 218.377 270.692 218.478 271.954 219.687 L 286.49 233.5 C 287.209 234.182 287.608 235.134 287.592 236.125 C 287.576 237.115 287.146 238.054 286.406 238.713 L 271.182 252.273 C 270.363 253.007 269.248 253.316 268.168 253.11 L 268.168 253.11 Z " fill="rgb(7,232,89)"/><path d=" M 597.226 166.758 C 597.226 117.318 557.147 0 507.707 0 C 458.267 0 418.189 117.318 418.189 166.758 C 418.179 198.746 435.24 228.308 462.941 244.305 C 490.641 260.301 524.773 260.301 552.474 244.305 C 580.175 228.308 597.235 198.746 597.226 166.758 L 597.226 166.758 Z " fill="rgb(7,232,89)"/><path d=" M 507.707 439.017 C 508.114 439.017 508.443 438.688 508.443 438.281 L 508.443 75.18 C 508.443 74.773 508.114 74.444 507.707 74.444 C 507.301 74.444 506.971 74.773 506.971 75.18 L 506.971 438.281 C 506.971 438.688 507.301 439.017 507.707 439.017 Z " fill="rgb(85,85,85)"/><path d=" M 507.707 134.763 C 507.903 134.763 508.09 134.686 508.228 134.547 L 543.659 99.116 C 543.944 98.828 543.942 98.364 543.656 98.078 C 543.37 97.792 542.906 97.791 542.618 98.075 L 507.187 133.506 C 506.976 133.717 506.913 134.034 507.027 134.309 C 507.141 134.584 507.41 134.763 507.707 134.763 L 507.707 134.763 Z " fill="rgb(63,61,86)"/><path d=" M 507.707 196.101 C 508.005 196.101 508.273 195.922 508.387 195.647 C 508.501 195.372 508.438 195.055 508.228 194.845 L 448.892 135.508 C 448.604 135.224 448.14 135.226 447.854 135.512 C 447.568 135.798 447.567 136.261 447.851 136.549 L 507.187 195.886 C 507.325 196.024 507.512 196.102 507.707 196.101 Z " fill="rgb(63,61,86)"/><path d=" M 561.363 459.036 C 561.235 459.135 561.101 459.223 560.972 459.32 L 451.226 459.32 C 449.075 450.607 448.316 441.885 451.528 434.311 C 456.104 423.518 469.649 416.78 480.417 421.415 C 482.969 422.543 485.191 424.302 486.875 426.525 C 491.084 418.992 498.632 413.313 507.345 413.319 C 518.261 413.327 527.337 422.254 530.299 432.565 C 535.069 424.515 544.489 418.889 553.697 421.309 C 569.099 425.357 573.963 449.298 561.363 459.036 Z " fill="rgb(149,149,149)"/><path d=" M 128.74 288.761 C 128.74 253.235 99.92 168.933 64.37 168.933 C 28.819 168.933 0 253.235 0 288.761 C 0.027 324.293 28.838 353.082 64.37 353.082 C 99.901 353.082 128.713 324.293 128.74 288.761 L 128.74 288.761 Z " fill="rgb(149,149,149)"/><path d=" M 64.37 445.26 C 64.51 445.26 64.645 445.204 64.744 445.105 C 64.843 445.006 64.899 444.871 64.899 444.731 L 64.899 222.955 C 64.898 222.664 64.661 222.428 64.37 222.428 C 64.078 222.428 63.842 222.664 63.84 222.955 L 63.84 444.731 C 63.841 444.871 63.896 445.006 63.996 445.105 C 64.095 445.204 64.229 445.26 64.37 445.26 L 64.37 445.26 Z " fill="rgb(85,85,85)"/><path d=" M 64.37 265.77 C 64.51 265.771 64.645 265.715 64.744 265.616 L 90.222 240.155 C 90.428 239.949 90.428 239.614 90.221 239.407 C 90.014 239.201 89.679 239.201 89.473 239.408 L 63.995 264.868 C 63.844 265.019 63.799 265.246 63.881 265.444 C 63.963 265.642 64.156 265.771 64.37 265.771 L 64.37 265.77 Z " fill="rgb(63,61,86)"/><path d=" M 64.37 309.847 C 64.584 309.847 64.777 309.718 64.859 309.521 C 64.941 309.323 64.895 309.095 64.744 308.944 L 22.077 266.306 C 21.871 266.099 21.536 266.099 21.329 266.306 C 21.122 266.512 21.122 266.847 21.329 267.054 L 63.995 309.692 C 64.095 309.791 64.229 309.847 64.37 309.847 L 64.37 309.847 Z " fill="rgb(63,61,86)"/><path d=" M 102.662 459.116 C 102.57 459.187 102.474 459.251 102.381 459.32 L 23.466 459.32 C 21.92 453.059 21.374 446.792 23.684 441.349 C 26.974 433.593 36.714 428.752 44.457 432.082 C 46.291 432.893 47.889 434.156 49.101 435.754 C 52.127 430.341 57.555 426.26 63.82 426.265 C 71.669 426.27 78.195 432.685 80.325 440.095 C 83.755 434.31 90.529 430.267 97.15 432.006 C 108.225 434.915 111.723 452.118 102.662 459.116 Z " fill="rgb(149,149,149)"/><path d=" M 133.6 459.32 L 414.05 459.32 C 414.457 459.32 414.786 458.99 414.786 458.584 C 414.786 458.177 414.457 457.848 414.05 457.848 L 133.6 457.848 C 133.194 457.848 132.864 458.177 132.864 458.584 C 132.864 458.99 133.194 459.32 133.6 459.32 L 133.6 459.32 Z " fill="rgb(63,61,86)"/><path d=" M 266.356 257.751 C 265.28 257.52 264.373 256.8 263.906 255.803 L 254.649 236.231 C 253.922 234.691 254.393 232.851 255.77 231.85 L 266.471 224.08 C 267.88 223.047 269.834 223.202 271.062 224.446 L 285.212 238.654 C 285.911 239.356 286.284 240.318 286.241 241.308 C 286.198 242.298 285.742 243.224 284.984 243.863 L 269.391 256.998 C 268.552 257.709 267.429 257.987 266.356 257.751 L 266.356 257.751 Z " fill="rgb(7,232,89)"/><path d=" M 207.709 443.312 L 217.022 445.845 L 231.227 411.13 L 217.483 407.391 L 207.709 443.312 L 207.709 443.312 Z " fill="rgb(255,184,184)"/><path d=" M 232.629 459.379 L 203.361 451.416 L 206.438 440.108 L 225.133 445.194 C 230.972 446.783 234.418 452.805 232.829 458.645 L 232.629 459.379 L 232.629 459.379 Z " fill="rgb(85,85,85)"/><path d=" M 287.322 450.418 L 296.973 450.417 L 301.565 413.191 L 287.32 413.191 L 287.322 450.418 L 287.322 450.418 Z " fill="rgb(255,184,184)"/><path d=" M 315.587 459.378 L 285.254 459.38 L 285.254 447.66 L 304.628 447.659 C 310.68 447.659 315.587 452.565 315.587 458.617 L 315.587 459.378 L 315.587 459.378 Z " fill="rgb(85,85,85)"/><path d=" M 259.111 198.966 C 251.565 191.42 251.565 179.168 259.111 171.622 C 266.657 164.076 278.91 164.076 286.455 171.622 C 294.001 179.168 294.001 191.42 286.455 198.966 C 278.91 206.512 266.657 206.512 259.111 198.966 Z " fill="rgb(255,184,184)"/><path d=" M 284.403 420.812 L 273.596 341.786 C 273.431 340.581 272.497 339.627 271.296 339.438 C 270.096 339.248 268.913 339.868 268.384 340.962 L 231.603 417.251 C 230.83 418.835 229.014 419.616 227.332 419.087 L 213.158 414.551 C 211.333 413.974 210.3 412.048 210.829 410.208 C 228.07 349.336 242.957 304.048 259.568 280.883 C 259.633 280.793 259.7 280.708 259.772 280.624 L 263.456 276.326 C 264.129 275.54 265.112 275.088 266.146 275.089 L 293.267 275.089 C 294.718 275.084 296.023 275.968 296.557 277.316 L 297.263 279.082 C 297.32 279.223 297.368 279.368 297.407 279.516 C 306.272 313.26 308.571 358.075 304.641 420.551 C 304.521 422.418 302.973 423.872 301.102 423.875 L 287.913 423.875 C 286.144 423.869 284.649 422.564 284.403 420.812 Z " fill="rgb(85,85,85)"/><path d=" M 258.257 279.278 L 258.257 279.278 C 254.35 273.025 235.705 240.721 252.441 218.842 C 252.742 218.455 252.935 217.996 253.003 217.511 L 253.666 212.423 C 253.79 211.462 254.302 210.594 255.083 210.021 C 255.865 209.448 256.847 209.221 257.8 209.392 C 263.618 210.451 274.575 213.78 282.6 224.175 C 282.983 224.676 283.225 225.27 283.3 225.896 L 283.743 229.439 C 283.856 230.387 284.457 231.206 285.327 231.599 C 290.445 233.923 301.899 242.979 297.722 276.784 C 297.516 278.523 296.065 279.848 294.315 279.897 L 261.37 280.937 C 261.333 280.937 261.296 280.938 261.259 280.938 C 260.04 280.937 258.907 280.311 258.257 279.278 Z " fill="rgb(7,232,89)"/><path d=" M 244.897 331.088 C 243.203 329.246 242.412 326.748 242.737 324.266 C 243.062 321.785 244.47 319.574 246.581 318.231 L 256.426 244.736 L 273.686 251.085 L 258.653 321.293 C 260.721 325.073 259.635 329.802 256.125 332.301 C 252.616 334.8 247.792 334.279 244.897 331.088 L 244.897 331.088 Z " fill="rgb(255,184,184)"/><path d=" M 251.104 253.769 C 250.37 252.949 250.062 251.832 250.272 250.752 L 254.318 229.482 C 254.637 227.81 256.101 226.6 257.804 226.603 L 271.028 226.625 C 272.776 226.62 274.263 227.897 274.523 229.625 L 277.59 249.441 C 277.742 250.42 277.476 251.418 276.858 252.192 C 276.241 252.967 275.326 253.447 274.338 253.516 L 254 254.948 C 252.904 255.028 251.832 254.592 251.104 253.769 L 251.104 253.769 Z " fill="rgb(7,232,89)"/><path d=" M 251.51 173.269 C 252.946 168.916 254.006 164.447 254.678 159.912 C 254.89 157.272 254.213 154.432 252.291 152.61 C 248.693 149.201 242.579 150.825 238.817 154.051 C 233.379 158.714 230.667 165.879 229.642 172.969 C 228.617 180.058 229.068 187.268 228.821 194.426 C 228.574 201.585 227.55 208.947 223.9 215.11 C 220.251 221.274 213.478 226.005 206.334 225.481 C 203.45 225.325 200.712 224.164 198.595 222.201 C 196.486 220.194 195.481 217.289 195.9 214.409 C 192.248 220.947 194.099 229.808 199.546 234.948 C 204.992 240.088 213.369 241.541 220.529 239.347 C 227.689 237.152 233.582 231.649 237.102 225.039 C 240.622 218.43 241.912 210.794 241.725 203.307 C 241.581 197.558 240.604 191.762 241.576 186.094 C 242.547 180.426 246.095 174.671 251.688 173.336 L 251.51 173.269 Z " fill="rgb(85,85,85)"/><path d=" M 269.586 203.269 C 268.05 200.834 267.649 197.851 268.488 195.097 C 269.327 192.343 271.322 190.09 273.955 188.925 C 277.46 187.374 281.516 187.967 285.278 187.231 C 292.019 185.911 297.568 179.754 297.969 172.897 C 298.369 166.039 293.421 159.186 286.735 157.611 C 284.068 156.983 281.287 157.13 278.551 157.282 C 275.924 157.427 273.294 157.573 270.679 157.873 C 265.505 158.466 260.272 159.718 255.966 162.647 C 251.66 165.576 248.408 170.426 248.464 175.634 C 248.527 181.577 251.33 193.408 255.229 197.895 C 258.99 202.224 261.853 203.784 267.823 204.079 L 269.586 203.269 Z " fill="rgb(85,85,85)"/><path d=" M 342.291 274.591 L 333.209 274.591 L 333.209 265.509 C 333.209 264.9 332.715 264.405 332.105 264.405 C 331.495 264.405 331.001 264.9 331.001 265.509 L 331.001 274.591 L 321.919 274.591 C 321.309 274.591 320.815 275.086 320.815 275.695 C 320.815 276.305 321.309 276.799 321.919 276.799 L 331.001 276.799 L 331.001 285.881 C 331.001 286.491 331.495 286.985 332.105 286.985 C 332.715 286.985 333.209 286.491 333.209 285.881 L 333.209 276.799 L 342.291 276.799 C 342.901 276.799 343.395 276.305 343.395 275.695 C 343.395 275.086 342.901 274.591 342.291 274.591 Z " fill="rgb(7,232,89)"/><path d=" M 316.528 133.998 L 307.446 133.998 L 307.446 124.916 C 307.446 124.306 306.952 123.812 306.342 123.812 C 305.732 123.812 305.238 124.306 305.238 124.916 L 305.238 133.998 L 296.156 133.998 C 295.546 133.998 295.052 134.492 295.052 135.102 C 295.052 135.712 295.546 136.206 296.156 136.206 L 305.238 136.206 L 305.238 145.288 C 305.238 145.898 305.732 146.392 306.342 146.392 C 306.952 146.392 307.446 145.898 307.446 145.288 L 307.446 136.206 L 316.528 136.206 C 317.138 136.206 317.632 135.712 317.632 135.102 C 317.632 134.492 317.138 133.998 316.528 133.998 Z " fill="rgb(7,232,89)"/><path d=" M 198.753 175.219 L 189.672 175.219 L 189.672 166.137 C 189.672 165.528 189.177 165.033 188.568 165.033 C 187.958 165.033 187.463 165.528 187.463 166.137 L 187.463 175.219 L 178.382 175.219 C 177.772 175.219 177.277 175.713 177.277 176.323 C 177.277 176.933 177.772 177.427 178.382 177.427 L 187.463 177.427 L 187.463 186.509 C 187.463 187.119 187.958 187.613 188.568 187.613 C 189.177 187.613 189.672 187.119 189.672 186.509 L 189.672 177.427 L 198.753 177.427 C 199.363 177.427 199.858 176.933 199.858 176.323 C 199.858 175.713 199.363 175.219 198.753 175.219 Z " fill="rgb(7,232,89)"/></g></g></svg>